<svg xmlns="http://www.w3.org/2000/svg" xmlns:xlink="http://www.w3.org/1999/xlink" width="500" zoomAndPan="magnify" viewBox="0 0 375 374.999991" height="500" preserveAspectRatio="xMidYMid meet" version="1.0"><defs><clipPath id="bae8ff5522"><path d="M 135 84 L 236 84 L 236 295.5625 L 135 295.5625 Z M 135 84 " clip-rule="nonzero"/></clipPath><clipPath id="63e6377115"><path d="M 64 91 L 303 91 L 303 295.5625 L 64 295.5625 Z M 64 91 " clip-rule="nonzero"/></clipPath><clipPath id="8a2c8f3b8d"><path d="M 31 145 L 333 145 L 333 295.5625 L 31 295.5625 Z M 31 145 " clip-rule="nonzero"/></clipPath><clipPath id="d89c684d4d"><path d="M 54 144 L 288 144 L 288 295.5625 L 54 295.5625 Z M 54 144 " clip-rule="nonzero"/></clipPath><clipPath id="29c6f895b8"><path d="M 272 251 L 290 251 L 290 295.5625 L 272 295.5625 Z M 272 251 " clip-rule="nonzero"/></clipPath><clipPath id="121b38359e"><path d="M 51 79.5625 L 324 79.5625 L 324 295.5625 L 51 295.5625 Z M 51 79.5625 " clip-rule="nonzero"/></clipPath></defs><g clip-path="url(#bae8ff5522)"><path fill="#fde2de" d="M 190.617188 163.976562 L 146.675781 163.976562 C 140.425781 163.976562 135.363281 158.910156 135.363281 152.660156 L 135.363281 84.648438 L 201.925781 84.648438 L 201.925781 152.660156 C 201.925781 158.910156 196.863281 163.976562 190.617188 163.976562 Z M 206.820312 282.246094 C 206.492188 282.339844 201.542969 285.878906 198.566406 288.023438 C 197.246094 288.976562 196.742188 290.691406 197.328125 292.207031 L 216.921875 292.207031 C 216.921875 292.207031 217.039062 294.5 218.097656 295.492188 L 234.667969 295.492188 L 235.171875 278.964844 L 222.332031 268.058594 C 222.332031 268.058594 215.347656 279.703125 212.578125 280.613281 C 209.820312 281.515625 206.820312 282.246094 206.820312 282.246094 Z M 206.820312 282.246094 " fill-opacity="1" fill-rule="nonzero"/></g><path fill="#c29e82" d="M 236.136719 229.941406 C 236.285156 229.371094 235.527344 275.886719 235.179688 278.964844 C 234.828125 282.039062 232.109375 286.488281 232.109375 286.488281 C 227.539062 283.335938 221.011719 285.214844 221.011719 285.214844 C 221.011719 285.214844 224.082031 279.558594 223.34375 277.273438 L 212.816406 283.238281 C 210.835938 284.363281 208.335938 283.949219 206.820312 282.246094 L 210.917969 277.882812 C 210.917969 277.882812 205.746094 234.863281 205.863281 234.402344 " fill-opacity="1" fill-rule="nonzero"/><path fill="#f27457" d="M 209.085938 145.417969 L 209.085938 117.324219 C 209.085938 111.984375 213.238281 107.441406 218.566406 107.25 C 224.160156 107.050781 228.761719 111.53125 228.761719 117.082031 C 228.75 119.847656 228.742188 122.433594 228.75 124.550781 C 228.75 127.839844 230.554688 130.871094 233.449219 132.441406 C 235.4375 133.519531 236.972656 135.277344 237.773438 137.394531 L 242.34375 149.46875 M 201.222656 191.152344 L 201.222656 236.859375 L 239.574219 236.859375 C 239.574219 216.617188 244.066406 203.230469 238.578125 189.492188 C 233.085938 175.75 215.691406 173.8125 215.691406 173.8125 Z M 201.222656 191.152344 " fill-opacity="1" fill-rule="nonzero"/><path fill="#010101" d="M 242.761719 173.617188 C 239.269531 175.484375 236.066406 176.617188 236.066406 176.617188 L 236.128906 182.375 C 237.9375 186.28125 239.851562 191.84375 239.851562 191.84375 L 223.03125 191.84375 L 217.335938 180.132812 L 209.921875 191.84375 L 201.214844 191.84375 L 201.214844 165.328125 C 198.5 168.683594 195.75 170.839844 193.515625 172.207031 C 190.6875 173.941406 187.0625 173.753906 184.433594 171.726562 C 176.9375 165.9375 173.523438 160.777344 173.523438 160.777344 C 173.609375 157.425781 181.113281 151.726562 181.113281 151.726562 L 187.359375 156.015625 L 198.515625 140.613281 C 201.441406 136.570312 206.121094 134.183594 211.113281 134.183594 L 211.902344 134.183594 C 211.902344 134.183594 220.085938 133.800781 223.117188 133.527344 C 223.296875 133.65625 224.980469 133.359375 225.175781 133.46875 C 226.320312 134.128906 227.648438 134.503906 229.066406 134.503906 C 232.914062 134.503906 236.429688 136.714844 238.09375 140.1875 C 242.324219 149.027344 245.367188 156.519531 247.285156 161.570312 C 249.019531 166.15625 247.078125 171.308594 242.761719 173.617188 Z M 242.761719 173.617188 " fill-opacity="1" fill-rule="nonzero"/><path fill="#fde2de" d="M 232.296875 182.9375 L 210.957031 187.863281 L 194.320312 162.207031 L 216.351562 156.84375 L 217.699219 159.046875 L 219.136719 159.125 L 220.855469 161.742188 L 220.171875 163.101562 Z M 232.296875 182.9375 " fill-opacity="1" fill-rule="nonzero"/><path fill="#c29e82" d="M 230.4375 178.289062 C 230.4375 178.289062 212.203125 183.929688 211.371094 184.125 C 209.597656 184.5 206.535156 184.058594 206.964844 183.425781 C 205.933594 183.125 205.894531 182.367188 205.894531 182.367188 C 205.894531 182.367188 204.503906 182.105469 204.722656 180.660156 C 201.695312 179.777344 203.203125 176.574219 203.203125 176.574219 L 203.921875 177.6875 C 203.921875 177.6875 206.433594 177.019531 207.230469 176.242188 C 205.371094 176.46875 204.910156 174.964844 205.273438 174.660156 C 205.636719 174.355469 209.535156 171.914062 210.445312 171.910156 C 211.359375 171.902344 216.019531 172.769531 216.019531 172.769531 L 225.523438 168.179688 Z M 230.4375 178.289062 " fill-opacity="1" fill-rule="nonzero"/><path fill="#81459b" d="M 278.039062 198.695312 L 259.710938 198.695312 L 257.59375 208.847656 L 261.089844 208.847656 C 261.730469 208.847656 262.246094 209.363281 262.246094 210.003906 C 262.246094 210.648438 261.730469 211.164062 261.089844 211.164062 L 233.457031 211.164062 C 232.816406 211.164062 232.296875 210.648438 232.296875 210.003906 C 232.296875 209.363281 232.816406 208.847656 233.457031 208.847656 L 240.382812 208.847656 L 242.5 198.695312 L 224.488281 198.695312 C 223.148438 198.695312 222.007812 197.828125 221.800781 196.65625 L 215.132812 158.808594 C 214.875 157.34375 216.152344 156.015625 217.820312 156.015625 L 271.371094 156.015625 C 272.710938 156.015625 273.847656 156.882812 274.054688 158.054688 L 280.726562 195.90625 C 280.984375 197.375 279.707031 198.695312 278.039062 198.695312 Z M 203.167969 282.566406 L 240.117188 282.566406 L 240.117188 215.859375 L 203.167969 215.859375 Z M 203.167969 282.566406 " fill-opacity="1" fill-rule="nonzero"/><path fill="#f27457" d="M 277.34375 193.515625 L 271.53125 160.535156 C 271.351562 159.511719 270.359375 158.753906 269.195312 158.753906 L 222.539062 158.753906 C 221.082031 158.753906 219.976562 159.90625 220.203125 161.183594 L 226.015625 194.164062 C 226.199219 195.1875 227.1875 195.945312 228.355469 195.945312 L 275.007812 195.945312 C 276.464844 195.949219 277.570312 194.796875 277.34375 193.515625 Z M 251.027344 188.921875 L 250.988281 188.714844 L 227.203125 188.941406 L 222.800781 165.683594 L 246.863281 166.929688 L 246.625 165.664062 L 270.761719 166.914062 L 274.925781 188.695312 Z M 251.027344 188.921875 " fill-opacity="1" fill-rule="nonzero"/><path fill="#fde2de" d="M 222.480469 130.890625 C 223.164062 131.953125 224.089844 132.835938 225.183594 133.464844 L 215.417969 147.425781 L 211.902344 134.175781 L 214.582031 131.09375 L 220.929688 129.808594 C 221.097656 130.191406 222.261719 130.554688 222.480469 130.890625 Z M 250.890625 189.144531 L 250.886719 189.113281 L 227.066406 189.15625 L 222.25 164.058594 L 246.496094 164.039062 L 270.320312 164.019531 L 275.132812 189.085938 Z M 248.605469 175.03125 L 249.203125 178.125 L 260.726562 178.121094 L 260.125 175.023438 Z M 260.039062 174.597656 L 259.4375 171.5 L 247.933594 171.507812 L 248.527344 174.601562 Z M 249.285156 178.554688 L 249.882812 181.648438 L 261.417969 181.644531 L 260.816406 178.546875 Z M 249.960938 182.070312 L 250.554688 185.167969 L 262.097656 185.160156 L 261.496094 182.066406 Z M 250.640625 185.589844 L 251.242188 188.710938 L 262.792969 188.683594 L 262.1875 185.574219 Z M 274.039062 185.574219 L 262.605469 185.582031 L 263.207031 188.691406 L 274.625 188.664062 Z M 273.355469 182.050781 L 261.917969 182.058594 L 262.519531 185.152344 L 273.953125 185.148438 Z M 272.683594 178.535156 L 261.238281 178.542969 L 261.839844 181.636719 L 273.28125 181.628906 Z M 272.011719 175.011719 L 260.550781 175.019531 L 261.152344 178.113281 L 272.605469 178.105469 Z M 271.332031 171.496094 L 259.863281 171.5 L 260.46875 174.597656 L 271.925781 174.589844 Z M 259.140625 167.769531 L 259.78125 171.082031 L 271.253906 171.074219 L 270.617188 167.765625 Z M 247.214844 167.777344 L 247.847656 171.085938 L 259.351562 171.082031 L 258.710938 167.769531 Z M 249.453125 181.644531 L 248.859375 178.546875 L 237.410156 178.554688 L 238.015625 181.648438 Z M 238.09375 182.078125 L 238.695312 185.171875 L 250.128906 185.167969 L 249.53125 182.070312 Z M 248.773438 178.125 L 248.179688 175.03125 L 236.71875 175.039062 L 237.320312 178.132812 Z M 248.101562 174.601562 L 247.503906 171.507812 L 236.039062 171.515625 L 236.640625 174.609375 Z M 247.421875 171.085938 L 246.785156 167.777344 L 235.308594 167.785156 L 235.949219 171.09375 Z M 224.023438 171.105469 L 235.527344 171.097656 L 234.886719 167.789062 L 223.390625 167.796875 Z M 224.703125 174.621094 L 236.222656 174.617188 L 235.617188 171.519531 L 224.113281 171.527344 Z M 225.375 178.140625 L 236.902344 178.132812 L 236.296875 175.039062 L 224.78125 175.042969 Z M 226.050781 181.664062 L 237.585938 181.65625 L 236.984375 178.5625 L 225.460938 178.566406 Z M 226.730469 185.179688 L 238.273438 185.171875 L 237.671875 182.078125 L 226.132812 182.085938 Z M 238.960938 188.710938 L 238.355469 185.601562 L 226.8125 185.609375 L 227.414062 188.730469 Z M 250.800781 188.683594 L 250.207031 185.589844 L 238.773438 185.59375 L 239.375 188.703125 Z M 250.800781 188.683594 " fill-opacity="1" fill-rule="nonzero"/><path fill="#c29e82" d="M 284.402344 162.226562 L 276.179688 174.304688 C 267.316406 169.335938 246.25 156.015625 246.25 156.015625 C 246.25 156.015625 244.921875 154.777344 243.515625 152.953125 C 242.113281 151.125 242.890625 150.644531 242.890625 150.644531 C 241.53125 149.035156 243.109375 148.003906 243.109375 148.003906 C 241.898438 146.460938 243.515625 145.472656 243.515625 145.472656 L 238.84375 141.320312 C 238.324219 140.859375 238.207031 140.089844 238.570312 139.5 C 238.980469 138.832031 239.851562 138.613281 240.527344 139.015625 L 247.085938 142.898438 L 248.121094 142.425781 C 249.332031 141.875 250.761719 142.148438 251.679688 143.121094 C 253.417969 144.945312 256.007812 147.679688 256.007812 147.679688 C 256.007812 147.671875 283.375 161.636719 284.402344 162.226562 Z M 284.402344 162.226562 " fill-opacity="1" fill-rule="nonzero"/><path fill="#f27457" d="M 177.316406 113.734375 C 177.316406 113.734375 179.449219 131.707031 185.203125 138.839844 C 180.660156 142.453125 174.902344 144.621094 168.648438 144.621094 C 153.9375 144.621094 142.011719 132.691406 142.011719 117.976562 C 142.011719 103.261719 153.9375 91.332031 168.648438 91.332031 Z M 314.714844 177.425781 L 299.921875 168.257812 L 296.28125 166.574219 L 296.820312 171.382812 L 283.878906 160.738281 L 276.179688 174.304688 L 289.425781 181.214844 L 297.167969 174.480469 L 298.1875 183.582031 Z M 314.714844 177.425781 " fill-opacity="1" fill-rule="nonzero"/><path fill="#010101" d="M 298.191406 183.585938 L 297.175781 174.488281 L 289.433594 181.222656 L 276.1875 174.3125 L 283.882812 160.742188 L 296.828125 171.390625 L 296.289062 166.578125 L 299.929688 168.261719 L 314.722656 177.433594 Z M 298.191406 183.585938 " fill-opacity="0.098" fill-rule="nonzero"/><path fill="#010101" d="M 135.714844 212.5625 L 137.429688 212.5625 L 137.429688 225.023438 C 137.429688 231.386719 132.257812 236.554688 125.90625 236.554688 C 119.554688 236.554688 114.382812 231.378906 114.382812 225.023438 L 114.382812 212.5625 L 116.097656 212.5625 L 116.097656 225.023438 C 116.097656 230.441406 120.5 234.835938 125.90625 234.835938 C 131.316406 234.835938 135.714844 230.433594 135.714844 225.023438 Z M 179.558594 146.773438 L 159.066406 146.773438 C 158.320312 146.773438 157.714844 147.382812 157.714844 148.125 C 157.714844 148.871094 158.320312 149.480469 159.066406 149.480469 L 179.558594 149.480469 C 180.300781 149.480469 180.910156 148.871094 180.910156 148.125 C 180.910156 147.382812 180.300781 146.773438 179.558594 146.773438 Z M 179.558594 151.417969 L 159.066406 151.417969 C 158.320312 151.417969 157.714844 152.027344 157.714844 152.769531 C 157.714844 153.515625 158.320312 154.125 159.066406 154.125 L 179.558594 154.125 C 180.300781 154.125 180.910156 153.515625 180.910156 152.769531 C 180.910156 152.027344 180.300781 151.417969 179.558594 151.417969 Z M 152.941406 156.058594 L 150.597656 156.058594 C 149.855469 156.058594 149.246094 156.667969 149.246094 157.414062 C 149.246094 158.160156 149.855469 158.769531 150.597656 158.769531 L 152.941406 158.769531 C 153.6875 158.769531 154.296875 158.160156 154.296875 157.414062 C 154.296875 156.667969 153.691406 156.058594 152.941406 156.058594 Z M 179.558594 156.058594 L 159.066406 156.058594 C 158.320312 156.058594 157.714844 156.667969 157.714844 157.414062 C 157.714844 158.160156 158.320312 158.769531 159.066406 158.769531 L 179.558594 158.769531 C 180.300781 158.769531 180.910156 158.160156 180.910156 157.414062 C 180.910156 156.667969 180.300781 156.058594 179.558594 156.058594 Z M 285.375 214.164062 C 285.375 215.816406 284.035156 217.15625 282.382812 217.15625 L 266.429688 217.15625 L 266.429688 225.03125 C 266.429688 231.390625 261.257812 236.558594 254.90625 236.558594 C 248.554688 236.558594 243.382812 231.386719 243.382812 225.03125 L 243.382812 217.15625 L 200.527344 217.15625 C 198.878906 217.15625 197.535156 215.816406 197.535156 214.164062 C 197.535156 212.511719 198.878906 211.171875 200.527344 211.171875 L 282.390625 211.171875 C 284.035156 211.171875 285.375 212.511719 285.375 214.164062 Z M 264.714844 217.15625 L 245.089844 217.15625 L 245.089844 225.03125 C 245.089844 230.445312 249.492188 234.84375 254.898438 234.84375 C 260.3125 234.84375 264.707031 230.441406 264.707031 225.03125 L 264.707031 217.15625 Z M 180.167969 111.675781 C 173.769531 113.792969 168.640625 117.976562 168.640625 117.976562 C 168.640625 117.976562 179.441406 131.707031 185.195312 138.84375 C 191.335938 133.960938 195.277344 126.4375 195.277344 117.976562 C 195.277344 115.121094 194.824219 112.367188 193.988281 109.785156 C 190.648438 110.632812 184.910156 110.101562 180.167969 111.675781 Z M 180.167969 111.675781 " fill-opacity="1" fill-rule="nonzero"/><g clip-path="url(#63e6377115)"><path fill="#81459b" d="M 152.941406 154.125 L 150.597656 154.125 C 149.855469 154.125 149.246094 153.515625 149.246094 152.769531 C 149.246094 152.027344 149.855469 151.417969 150.597656 151.417969 L 152.941406 151.417969 C 153.6875 151.417969 154.296875 152.027344 154.296875 152.769531 C 154.296875 153.515625 153.691406 154.125 152.941406 154.125 Z M 105.875 207.726562 L 97.703125 207.726562 C 96.75 207.726562 95.980469 208.496094 95.980469 209.449219 C 95.980469 210.402344 96.75 211.171875 97.703125 211.171875 L 130.605469 211.171875 C 131.558594 211.171875 132.328125 210.402344 132.328125 209.449219 C 132.328125 208.496094 131.558594 207.726562 130.605469 207.726562 L 123.082031 207.726562 L 121.199219 198.695312 L 139.210938 198.695312 C 140.550781 198.695312 141.691406 197.828125 141.898438 196.65625 L 148.566406 158.808594 C 148.824219 157.34375 147.550781 156.015625 145.878906 156.015625 L 92.328125 156.015625 C 90.988281 156.015625 89.851562 156.882812 89.644531 158.054688 L 82.972656 195.90625 C 82.714844 197.371094 83.992188 198.695312 85.660156 198.695312 L 103.988281 198.695312 Z M 114.816406 295.53125 L 86.417969 295.53125 C 86.417969 290.75 88.699219 283.386719 88.699219 283.386719 L 94.039062 278.9375 L 103.855469 284.609375 C 104.480469 285.597656 106.578125 286.863281 108.644531 287.941406 C 111.660156 289.515625 113.902344 292.253906 114.816406 295.53125 Z M 82.046875 285.914062 C 85.34375 291.730469 85.214844 295.53125 85.214844 295.53125 L 79.835938 295.53125 C 79.835938 295.53125 64.871094 295.53125 64.871094 294.085938 C 64.828125 290.121094 69.015625 281.664062 69.015625 281.664062 L 76.34375 276.230469 Z M 302.828125 236.199219 L 287.40625 253.425781 L 287.40625 276.074219 L 285.769531 276.074219 C 285.769531 276.074219 279.015625 280.894531 278.996094 280.464844 C 278.984375 280.03125 254.910156 276.074219 254.910156 276.074219 L 253.585938 276.074219 L 253.585938 240.148438 C 253.585938 233.375 259.074219 227.882812 265.847656 227.882812 L 280.1875 227.882812 L 298.320312 222.789062 Z M 123.585938 215.859375 L 160.535156 215.859375 L 160.535156 282.566406 L 123.585938 282.566406 Z M 193.988281 109.785156 C 186.136719 111.785156 168.640625 117.976562 168.640625 117.976562 L 168.640625 91.332031 C 180.496094 91.332031 190.539062 99.078125 193.988281 109.785156 Z M 193.988281 109.785156 " fill-opacity="1" fill-rule="nonzero"/></g><path fill="#fde2de" d="M 135.351562 195.949219 L 88.699219 195.949219 C 87.242188 195.949219 86.132812 194.796875 86.359375 193.523438 L 92.175781 160.542969 C 92.355469 159.519531 93.347656 158.761719 94.511719 158.761719 L 141.164062 158.761719 C 142.621094 158.761719 143.730469 159.914062 143.503906 161.191406 L 137.6875 194.167969 C 137.507812 195.191406 136.515625 195.949219 135.351562 195.949219 Z M 135.351562 195.949219 " fill-opacity="1" fill-rule="nonzero"/><path fill="#f27457" d="M 101.457031 179.375 L 100.292969 185.984375 L 98.390625 185.984375 L 99.554688 179.375 Z M 104.914062 176.59375 L 103.257812 185.984375 L 105.160156 185.984375 L 106.820312 176.59375 Z M 110.210938 174.164062 L 108.128906 185.984375 L 110.03125 185.984375 L 112.113281 174.164062 Z M 115.824219 169.953125 L 113.003906 185.984375 L 114.90625 185.984375 L 117.726562 169.953125 Z M 56.066406 250.796875 L 65.570312 252.3125 L 67.042969 260.421875 L 69.910156 260.421875 L 77.601562 265.914062 L 88.039062 260.363281 L 89.382812 260.421875 L 93.960938 265.082031 L 108.710938 260.394531 C 108.710938 260.394531 113.5 260.765625 113.5 260.394531 C 113.5 260.195312 115.421875 248.148438 116.78125 239.539062 C 117.871094 232.636719 112.535156 226.390625 105.550781 226.390625 L 86.011719 226.390625 L 68.207031 219.871094 Z M 323.304688 221.015625 L 320.246094 187.472656 C 319.707031 181.554688 315.472656 176.519531 309.664062 175.269531 C 309.464844 175.226562 309.269531 175.191406 309.070312 175.152344 C 308.828125 175.113281 308.589844 175.078125 308.34375 175.042969 C 308.074219 175.011719 307.800781 174.980469 307.527344 174.964844 L 302.75 174.667969 L 300.59375 172.460938 L 297.246094 169.335938 L 288.253906 172.460938 L 286.382812 174.589844 L 286.117188 174.609375 L 282.273438 174.894531 C 282.144531 174.902344 282.019531 174.921875 281.890625 174.933594 C 277.273438 175.40625 273.175781 178.132812 270.976562 182.238281 L 261.921875 199.214844 L 265.796875 210.71875 L 275.304688 208.664062 L 277.007812 206.175781 L 280.1875 227.875 L 306.433594 227.410156 C 307.121094 225.964844 307.910156 224.292969 308.726562 222.582031 L 319.757812 224.324219 Z M 323.304688 221.015625 " fill-opacity="1" fill-rule="nonzero"/><g clip-path="url(#8a2c8f3b8d)"><path fill="#010101" d="M 201.011719 215.859375 L 206.988281 215.859375 L 206.988281 295.53125 L 201.011719 295.53125 Z M 326.292969 215.859375 L 326.292969 295.53125 L 332.265625 295.53125 L 332.265625 215.859375 Z M 119.171875 183.839844 L 135.875 183.839844 C 136.414062 183.839844 136.867188 183.457031 136.964844 182.925781 L 139.195312 170.171875 C 139.3125 169.5 138.796875 168.878906 138.109375 168.878906 L 121.554688 168.878906 C 121.023438 168.878906 120.570312 169.253906 120.472656 169.777344 L 118.097656 182.53125 C 117.960938 183.210938 118.484375 183.839844 119.171875 183.839844 Z M 31.433594 295.53125 L 37.410156 295.53125 L 37.410156 215.859375 L 31.433594 215.859375 Z M 166.167969 214.164062 C 166.167969 215.816406 164.828125 217.15625 163.179688 217.15625 L 162.6875 217.15625 L 162.6875 295.53125 L 156.710938 295.53125 L 156.710938 217.15625 L 86.261719 217.15625 C 85.925781 222.648438 86.011719 226.328125 86.011719 226.328125 L 54 226.328125 L 53.769531 207.410156 C 50.144531 206.09375 47.941406 202.402344 48.5 198.585938 L 51.070312 181.003906 C 51.890625 175.386719 56.363281 171.015625 61.992188 170.324219 L 65.882812 169.84375 L 67.339844 167.90625 L 79.21875 167.90625 L 80.761719 170.082031 L 83.304688 170.59375 C 88.148438 171.566406 92.386719 174.429688 95.105469 178.527344 L 95.554688 175.976562 L 94.667969 175.976562 L 94.667969 175.328125 L 95.671875 175.328125 L 96.273438 171.910156 L 95.371094 171.910156 L 95.371094 171.261719 L 96.390625 171.261719 L 96.992188 167.839844 L 96.105469 167.839844 L 96.105469 167.195312 L 97.109375 167.195312 L 97.378906 165.632812 L 98.015625 165.742188 L 95.617188 179.339844 C 96.492188 180.800781 97.429688 182.367188 98.363281 183.929688 C 101.34375 183.257812 110.035156 180.777344 114.929688 174.09375 L 113.636719 174.480469 L 113.449219 173.859375 L 116.117188 173.054688 L 115.78125 175.78125 L 115.136719 175.703125 L 115.253906 174.738281 C 110.316406 181.242188 101.910156 183.761719 98.714844 184.519531 C 99.605469 186.015625 100.488281 187.492188 101.296875 188.839844 L 119.890625 188.839844 L 119.890625 189.488281 L 101.683594 189.488281 C 103.574219 192.648438 104.949219 194.941406 104.882812 194.84375 L 106.28125 196.800781 C 109.285156 197.875 110.21875 198.328125 112.984375 199.871094 L 109.316406 211.183594 L 163.179688 211.183594 C 164.835938 211.171875 166.167969 212.511719 166.167969 214.164062 Z M 98.007812 211.171875 C 95.328125 207.039062 90.386719 199.460938 90.386719 199.460938 C 90.503906 200.75 87.847656 204.914062 86.828125 211.171875 Z M 299.507812 147.671875 C 298.128906 145.210938 294.941406 145.210938 292.199219 145.210938 C 285.535156 145.210938 280.140625 150.613281 280.140625 157.273438 C 280.15625 158.332031 280.214844 159.351562 280.296875 160.328125 L 281.722656 164.667969 L 283.042969 163.59375 C 283.140625 165.050781 283.269531 165.9375 284.886719 165.679688 C 285.042969 165.355469 285.316406 165.09375 285.671875 164.953125 C 286.414062 164.667969 287.25 165.042969 287.535156 165.789062 C 287.796875 166.46875 287.871094 167.175781 287.796875 167.855469 L 288.527344 164.34375 C 288.941406 166.222656 289.230469 169.382812 287.601562 170.816406 C 296.28125 172.207031 300.003906 168.910156 300.003906 168.910156 C 300.003906 168.910156 306.046875 165.238281 304.019531 154.882812 C 303.445312 151.960938 301.800781 149.414062 299.507812 147.671875 Z M 287.796875 167.855469 L 287.625 168.652344 C 287.703125 168.390625 287.761719 168.125 287.796875 167.855469 Z M 287.796875 167.855469 " fill-opacity="1" fill-rule="nonzero"/></g><path fill="#c29e82" d="M 251.035156 293.875 C 251.035156 287.867188 254.738281 288.324219 256.128906 284.496094 C 256.292969 284.054688 253.914062 280.976562 254.039062 280.472656 C 254.988281 276.582031 254.917969 276.070312 254.917969 276.070312 C 254.917969 276.070312 285.867188 276.070312 285.773438 276.070312 C 285.683594 276.070312 285.773438 280.824219 285.773438 280.824219 C 285.773438 280.824219 284.921875 284.628906 285.367188 292.746094 Z M 251.035156 293.875 " fill-opacity="1" fill-rule="nonzero"/><g clip-path="url(#d89c684d4d)"><path fill="#f27457" d="M 154.296875 148.125 C 154.296875 148.871094 153.6875 149.480469 152.941406 149.480469 L 150.597656 149.480469 C 149.855469 149.480469 149.246094 148.871094 149.246094 148.125 C 149.246094 147.382812 149.855469 146.773438 150.597656 146.773438 L 152.941406 146.773438 C 153.691406 146.773438 154.296875 147.375 154.296875 148.125 Z M 126.554688 181.28125 L 120.363281 181.28125 C 119.996094 181.28125 119.683594 181.546875 119.617188 181.902344 C 119.535156 182.363281 119.890625 182.789062 120.363281 182.789062 L 126.554688 182.789062 C 126.921875 182.789062 127.234375 182.523438 127.296875 182.167969 C 127.382812 181.707031 127.027344 181.28125 126.554688 181.28125 Z M 121.121094 178.476562 L 123.082031 178.476562 C 123.453125 178.476562 123.761719 178.210938 123.828125 177.855469 C 123.910156 177.394531 123.554688 176.96875 123.082031 176.96875 L 121.121094 176.96875 C 120.75 176.96875 120.441406 177.234375 120.375 177.589844 C 120.296875 178.054688 120.65625 178.476562 121.121094 178.476562 Z M 125.660156 176.320312 L 127.699219 176.320312 C 128.066406 176.320312 128.378906 176.054688 128.441406 175.699219 C 128.527344 175.238281 128.171875 174.8125 127.699219 174.8125 L 125.660156 174.8125 C 125.289062 174.8125 124.980469 175.078125 124.914062 175.433594 C 124.832031 175.898438 125.1875 176.320312 125.660156 176.320312 Z M 120.746094 180.640625 L 122.707031 180.640625 C 123.074219 180.640625 123.386719 180.375 123.453125 180.019531 C 123.535156 179.558594 123.179688 179.128906 122.707031 179.128906 L 120.746094 179.128906 C 120.375 179.128906 120.066406 179.394531 120 179.753906 C 119.917969 180.210938 120.273438 180.640625 120.746094 180.640625 Z M 121.503906 176.320312 L 123.464844 176.320312 C 123.832031 176.320312 124.144531 176.054688 124.210938 175.699219 C 124.292969 175.238281 123.9375 174.8125 123.464844 174.8125 L 121.503906 174.8125 C 121.132812 174.8125 120.824219 175.078125 120.757812 175.433594 C 120.675781 175.898438 121.03125 176.320312 121.503906 176.320312 Z M 127.316406 176.96875 L 125.277344 176.96875 C 124.910156 176.96875 124.597656 177.234375 124.53125 177.589844 C 124.449219 178.050781 124.804688 178.476562 125.277344 178.476562 L 127.316406 178.476562 C 127.6875 178.476562 127.996094 178.210938 128.0625 177.855469 C 128.140625 177.386719 127.78125 176.96875 127.316406 176.96875 Z M 126.933594 179.125 L 124.894531 179.125 C 124.527344 179.125 124.214844 179.390625 124.152344 179.746094 C 124.066406 180.207031 124.421875 180.632812 124.894531 180.632812 L 126.933594 180.632812 C 127.304688 180.632812 127.613281 180.367188 127.679688 180.011719 C 127.761719 179.550781 127.40625 179.125 126.933594 179.125 Z M 129.886719 176.320312 L 131.925781 176.320312 C 132.296875 176.320312 132.605469 176.054688 132.671875 175.699219 C 132.753906 175.238281 132.398438 174.8125 131.925781 174.8125 L 129.886719 174.8125 C 129.519531 174.8125 129.207031 175.078125 129.140625 175.433594 C 129.066406 175.898438 129.421875 176.320312 129.886719 176.320312 Z M 131.167969 179.125 L 129.128906 179.125 C 128.761719 179.125 128.449219 179.390625 128.386719 179.746094 C 128.300781 180.207031 128.65625 180.632812 129.128906 180.632812 L 131.167969 180.632812 C 131.539062 180.632812 131.847656 180.367188 131.914062 180.011719 C 131.992188 179.550781 131.636719 179.125 131.167969 179.125 Z M 131.542969 176.96875 L 129.503906 176.96875 C 129.136719 176.96875 128.824219 177.234375 128.761719 177.589844 C 128.675781 178.050781 129.03125 178.476562 129.503906 178.476562 L 131.542969 178.476562 C 131.914062 178.476562 132.222656 178.210938 132.289062 177.855469 C 132.375 177.386719 132.015625 176.96875 131.542969 176.96875 Z M 135.777344 176.96875 L 133.738281 176.96875 C 133.371094 176.96875 133.058594 177.234375 132.996094 177.589844 C 132.910156 178.050781 133.265625 178.476562 133.738281 178.476562 L 135.777344 178.476562 C 136.148438 178.476562 136.457031 178.210938 136.523438 177.855469 C 136.601562 177.386719 136.246094 176.96875 135.777344 176.96875 Z M 136.160156 174.8125 L 134.121094 174.8125 C 133.753906 174.8125 133.441406 175.078125 133.375 175.433594 C 133.292969 175.890625 133.648438 176.320312 134.121094 176.320312 L 136.160156 176.320312 C 136.53125 176.320312 136.839844 176.054688 136.90625 175.699219 C 136.984375 175.230469 136.625 174.8125 136.160156 174.8125 Z M 130.785156 181.28125 L 128.746094 181.28125 C 128.378906 181.28125 128.066406 181.546875 128.003906 181.902344 C 127.917969 182.363281 128.273438 182.789062 128.746094 182.789062 L 130.785156 182.789062 C 131.15625 182.789062 131.464844 182.523438 131.53125 182.167969 C 131.609375 181.707031 131.253906 181.28125 130.785156 181.28125 Z M 135.398438 179.125 L 133.355469 179.125 C 132.988281 179.125 132.675781 179.390625 132.613281 179.746094 L 132.230469 181.902344 C 132.148438 182.363281 132.503906 182.789062 132.976562 182.789062 L 135.015625 182.789062 C 135.382812 182.789062 135.695312 182.523438 135.757812 182.167969 L 136.140625 180.011719 C 136.226562 179.550781 135.871094 179.125 135.398438 179.125 Z M 139.289062 166.726562 C 138.148438 166.6875 137.066406 167.503906 136.871094 168.554688 C 136.679688 169.601562 137.441406 170.492188 138.582031 170.53125 C 139.722656 170.570312 140.800781 169.753906 140.996094 168.703125 C 141.191406 167.652344 140.425781 166.765625 139.289062 166.726562 Z M 285.769531 280.824219 C 285.769531 280.824219 285.769531 280.691406 285.769531 280.472656 L 254.03125 280.472656 C 253.910156 280.976562 253.773438 281.457031 253.609375 281.898438 C 252.21875 285.726562 246.664062 289.351562 246.664062 295.363281 L 287.976562 295.492188 C 287.523438 287.371094 285.769531 280.824219 285.769531 280.824219 Z M 74.675781 144.785156 C 69.449219 144.785156 65.078125 148.417969 63.945312 153.300781 C 62.171875 159.3125 62.28125 165.257812 61.148438 167.277344 C 60.75 167.996094 60.0625 168.542969 59.351562 168.941406 C 57.453125 170.019531 56.054688 171.792969 55.394531 173.871094 L 54.457031 176.832031 C 54 178.269531 55.078125 179.738281 56.585938 179.738281 L 65.195312 179.738281 C 66.246094 179.738281 67.152344 179.007812 67.378906 177.984375 L 68.328125 173.632812 C 68.78125 171.554688 70.621094 170.078125 72.746094 170.078125 C 74.371094 170.078125 75.820312 169.214844 76.625 167.878906 C 76.882812 167.445312 78.417969 167.898438 78.519531 167.382812 L 82.042969 162.542969 L 85.03125 157.71875 C 85.03125 157.367188 85.667969 155.101562 85.636719 154.757812 C 85.109375 149.164062 80.402344 144.785156 74.675781 144.785156 Z M 74.675781 144.785156 " fill-opacity="1" fill-rule="nonzero"/></g><path fill="#c29e82" d="M 176.046875 148.308594 L 181.125 151.726562 C 179.441406 154.070312 173.535156 160.777344 173.535156 160.777344 L 165.300781 152.089844 C 163.882812 151.144531 162.71875 149.867188 161.921875 148.359375 C 161.734375 148.003906 161.546875 147.621094 161.363281 147.21875 C 160.417969 145.109375 161.15625 145.074219 161.15625 145.074219 C 161.15625 145.074219 160.550781 143.84375 160.148438 142.707031 C 159.398438 140.78125 160.867188 140.515625 160.867188 140.515625 C 160.867188 138.671875 162.414062 138.921875 162.414062 138.921875 C 162.414062 138.921875 162.738281 137.917969 163.617188 138.191406 C 164.5 138.457031 167.652344 142.089844 168.546875 142.367188 C 167.464844 139.894531 168.71875 139.148438 169.417969 139.621094 L 171.375 141.339844 C 172.3125 142.167969 173.101562 143.152344 173.703125 144.253906 L 175.75 147.996094 C 175.808594 148.132812 175.917969 148.238281 176.046875 148.308594 Z M 221.933594 117.742188 L 220.125 117.742188 L 218.339844 117.835938 C 215.4375 117.984375 212.996094 115.664062 212.996094 112.757812 C 212.996094 112.757812 210.386719 114.675781 210.195312 118.910156 C 210.121094 120.507812 210.101562 122.230469 210.109375 123.761719 C 210.117188 126.253906 212.144531 128.269531 214.636719 128.269531 L 214.460938 133.082031 L 216.414062 136.644531 L 222.480469 130.890625 C 221.707031 129.675781 221.253906 128.238281 221.253906 126.6875 L 221.253906 122.820312 L 221.367188 123.003906 C 221.367188 122.945312 221.363281 122.886719 221.363281 122.820312 C 222.632812 122.386719 223.539062 121.191406 223.539062 119.769531 L 223.539062 119.355469 C 223.542969 118.464844 222.824219 117.742188 221.933594 117.742188 Z M 107.316406 260.394531 L 89.363281 260.421875 C 88.152344 266.578125 90.003906 279.683594 88.703125 283.386719 C 89.824219 282.1875 93.863281 281.929688 95.191406 283.132812 C 96.519531 284.332031 101.777344 287.933594 101.777344 287.933594 C 103.230469 286.613281 103.855469 284.617188 103.855469 284.617188 C 103.855469 284.617188 102.851562 283.03125 103.101562 282.402344 C 103.367188 281.761719 107.316406 260.394531 107.316406 260.394531 Z M 88.121094 260.367188 L 69.910156 260.421875 C 68.78125 267.332031 71.910156 272.648438 69.007812 281.65625 C 70.601562 280.292969 73.585938 280.140625 76.332031 281.429688 C 79.078125 282.71875 82.046875 285.914062 82.046875 285.914062 C 82.046875 285.914062 81.363281 283.257812 81.730469 282.5 C 82.101562 281.742188 88.121094 260.367188 88.121094 260.367188 Z M 300.003906 168.917969 C 300.003906 168.917969 297.492188 168.9375 291.953125 168.9375 C 289.855469 167.808594 289.511719 164.207031 289.511719 164.207031 C 290.5 163.070312 290.871094 161.449219 290.359375 159.925781 C 290.105469 159.175781 289.285156 158.65625 288.53125 158.890625 C 288.125 159.015625 287.820312 159.300781 287.644531 159.648438 C 284.84375 159.933594 282.316406 157.953125 281.9375 155.160156 L 281.730469 153.691406 C 281.730469 153.691406 280.292969 155.890625 280.292969 160.328125 C 280.5 162.839844 280.894531 165.058594 281.3125 166.871094 C 282.027344 169.902344 284.964844 171.855469 288.035156 171.3125 L 288.253906 172.453125 L 300.59375 172.453125 Z M 261.800781 199.566406 C 260.542969 198.632812 259.261719 197.976562 258.039062 197.511719 C 254.757812 196.261719 251.046875 197.136719 248.625 199.675781 L 248.398438 199.90625 C 247.371094 200.988281 246.734375 202.394531 246.617188 203.886719 C 246.507812 205.265625 246.496094 206.851562 246.898438 207.503906 C 247.679688 208.769531 248.734375 207.894531 248.734375 207.894531 C 249.863281 210.078125 251.707031 208.449219 251.707031 208.449219 C 253.054688 209.757812 254.472656 207.855469 254.472656 207.855469 C 255.46875 209.460938 256.582031 211.023438 257.714844 212.484375 C 261.792969 217.757812 269.855469 217.394531 273.402344 211.761719 L 275.304688 208.664062 C 275.304688 208.664062 262.035156 198.949219 261.921875 199.222656 Z M 130.390625 206.546875 C 130.28125 206.339844 130.164062 206.160156 130.050781 205.996094 C 129.296875 204.972656 127.816406 204.777344 126.796875 205.550781 C 126.203125 205.996094 125.476562 206.40625 124.941406 206.242188 C 122.566406 205.511719 117.445312 202.335938 112.988281 199.855469 L 109.324219 211.171875 C 119.832031 211.171875 134.769531 211.171875 134.769531 211.171875 C 134.050781 207.167969 130.390625 206.546875 130.390625 206.546875 Z M 77.96875 162.523438 L 77.171875 166.449219 C 77.070312 166.96875 76.875 167.453125 76.617188 167.878906 L 80.273438 167.878906 C 82.707031 167.878906 84.773438 166.09375 85.117188 163.675781 C 85.492188 161.015625 85.765625 157.582031 85.636719 154.757812 C 85.628906 154.816406 85.617188 154.886719 85.597656 154.980469 C 85.226562 156.515625 83.816406 157.574219 82.234375 157.574219 L 79.5625 157.574219 L 79.433594 157.425781 C 78.871094 156.773438 77.890625 156.6875 77.226562 157.226562 C 76.421875 157.875 76.125 158.957031 76.460938 159.925781 C 76.765625 160.800781 77.25 161.832031 77.96875 162.523438 Z M 77.96875 162.523438 " fill-opacity="1" fill-rule="nonzero"/><g clip-path="url(#29c6f895b8)"><path fill="#010101" d="M 285.769531 276.070312 C 285.679688 276.070312 285.769531 280.824219 285.769531 280.824219 C 285.769531 280.824219 287.523438 287.371094 287.976562 295.484375 L 275.242188 295.445312 C 274.789062 287.351562 273.035156 280.824219 273.035156 280.824219 C 273.035156 280.824219 272.941406 276.070312 273.035156 276.070312 L 274.113281 276.070312 L 274.113281 252.285156 L 289.078125 251.957031 L 287.398438 253.417969 L 287.398438 276.070312 Z M 285.769531 276.070312 " fill-opacity="0.098" fill-rule="nonzero"/></g><path fill="#fde2de" d="M 152.773438 122.707031 L 152.773438 122.140625 C 152.902344 122.03125 153.019531 121.933594 153.117188 121.84375 C 153.214844 121.753906 153.304688 121.675781 153.382812 121.605469 C 153.460938 121.53125 153.523438 121.46875 153.582031 121.410156 C 153.640625 121.351562 153.691406 121.300781 153.738281 121.242188 C 153.777344 121.195312 153.816406 121.152344 153.855469 121.097656 C 153.894531 121.046875 153.933594 121 153.957031 120.949219 C 153.992188 120.898438 154.015625 120.847656 154.03125 120.792969 C 154.050781 120.742188 154.054688 120.691406 154.054688 120.640625 C 154.054688 120.527344 154.023438 120.445312 153.953125 120.378906 C 153.878906 120.316406 153.777344 120.277344 153.640625 120.277344 C 153.53125 120.277344 153.414062 120.289062 153.277344 120.320312 C 153.144531 120.355469 153.007812 120.40625 152.863281 120.476562 L 152.832031 119.863281 C 152.988281 119.804688 153.136719 119.765625 153.277344 119.730469 C 153.421875 119.699219 153.5625 119.6875 153.710938 119.6875 C 153.875 119.6875 154.03125 119.707031 154.164062 119.738281 C 154.308594 119.777344 154.425781 119.828125 154.523438 119.902344 C 154.617188 119.972656 154.695312 120.0625 154.753906 120.167969 C 154.8125 120.277344 154.839844 120.398438 154.839844 120.542969 C 154.839844 120.710938 154.789062 120.886719 154.691406 121.074219 C 154.59375 121.261719 154.4375 121.457031 154.230469 121.667969 C 154.171875 121.734375 154.09375 121.804688 154.003906 121.890625 C 153.914062 121.972656 153.824219 122.050781 153.730469 122.121094 L 154.898438 122.121094 L 154.898438 122.679688 L 152.773438 122.679688 Z M 157.558594 121.855469 C 157.519531 122.042969 157.460938 122.207031 157.371094 122.335938 C 157.28125 122.464844 157.164062 122.570312 157.019531 122.648438 C 156.871094 122.71875 156.691406 122.757812 156.46875 122.757812 C 156.25 122.757812 156.070312 122.71875 155.921875 122.648438 C 155.769531 122.574219 155.65625 122.472656 155.570312 122.335938 C 155.480469 122.207031 155.421875 122.042969 155.382812 121.855469 C 155.34375 121.667969 155.332031 121.460938 155.332031 121.226562 C 155.332031 121.035156 155.34375 120.847656 155.375 120.664062 C 155.410156 120.484375 155.460938 120.320312 155.542969 120.179688 C 155.628906 120.035156 155.738281 119.925781 155.886719 119.84375 C 156.035156 119.757812 156.230469 119.714844 156.476562 119.714844 C 156.714844 119.714844 156.910156 119.757812 157.058594 119.84375 C 157.207031 119.925781 157.324219 120.042969 157.410156 120.179688 C 157.492188 120.320312 157.546875 120.484375 157.578125 120.664062 C 157.609375 120.847656 157.621094 121.035156 157.621094 121.226562 C 157.617188 121.460938 157.597656 121.667969 157.558594 121.855469 Z M 156.847656 120.886719 C 156.839844 120.769531 156.820312 120.660156 156.800781 120.566406 C 156.78125 120.476562 156.734375 120.394531 156.683594 120.335938 C 156.632812 120.277344 156.5625 120.242188 156.476562 120.242188 C 156.386719 120.242188 156.316406 120.277344 156.261719 120.335938 C 156.210938 120.394531 156.171875 120.472656 156.148438 120.566406 C 156.121094 120.664062 156.109375 120.769531 156.09375 120.886719 C 156.082031 121 156.082031 121.117188 156.082031 121.234375 C 156.082031 121.351562 156.089844 121.46875 156.09375 121.585938 C 156.101562 121.703125 156.121094 121.8125 156.148438 121.902344 C 156.171875 122 156.210938 122.078125 156.261719 122.136719 C 156.316406 122.195312 156.386719 122.226562 156.476562 122.226562 C 156.566406 122.226562 156.640625 122.195312 156.691406 122.136719 C 156.742188 122.078125 156.78125 122 156.808594 121.902344 C 156.832031 121.804688 156.847656 121.703125 156.851562 121.585938 C 156.859375 121.46875 156.867188 121.351562 156.867188 121.234375 C 156.867188 121.117188 156.851562 121 156.847656 120.886719 Z M 157.941406 122.707031 L 157.941406 122.140625 C 158.070312 122.03125 158.1875 121.933594 158.285156 121.84375 C 158.378906 121.753906 158.472656 121.675781 158.546875 121.605469 C 158.625 121.53125 158.691406 121.46875 158.75 121.410156 C 158.808594 121.351562 158.859375 121.300781 158.90625 121.242188 C 158.945312 121.195312 158.984375 121.152344 159.019531 121.097656 C 159.058594 121.046875 159.097656 121 159.125 120.949219 C 159.15625 120.898438 159.183594 120.847656 159.195312 120.792969 C 159.214844 120.742188 159.222656 120.691406 159.222656 120.640625 C 159.222656 120.527344 159.191406 120.445312 159.117188 120.378906 C 159.046875 120.316406 158.945312 120.277344 158.808594 120.277344 C 158.699219 120.277344 158.582031 120.289062 158.445312 120.320312 C 158.308594 120.355469 158.171875 120.40625 158.03125 120.476562 L 158 119.863281 C 158.152344 119.804688 158.300781 119.765625 158.445312 119.730469 C 158.585938 119.699219 158.730469 119.6875 158.878906 119.6875 C 159.039062 119.6875 159.195312 119.707031 159.332031 119.738281 C 159.472656 119.777344 159.589844 119.828125 159.6875 119.902344 C 159.785156 119.972656 159.863281 120.0625 159.921875 120.167969 C 159.980469 120.277344 160.003906 120.398438 160.003906 120.542969 C 160.003906 120.710938 159.953125 120.886719 159.855469 121.074219 C 159.757812 121.261719 159.605469 121.457031 159.398438 121.667969 C 159.339844 121.734375 159.261719 121.804688 159.171875 121.890625 C 159.078125 121.972656 158.988281 122.050781 158.898438 122.121094 L 160.0625 122.121094 L 160.0625 122.679688 L 157.941406 122.679688 Z M 160.523438 122.707031 L 160.523438 122.140625 C 160.652344 122.03125 160.769531 121.933594 160.867188 121.84375 C 160.964844 121.753906 161.054688 121.675781 161.132812 121.605469 C 161.210938 121.53125 161.273438 121.46875 161.332031 121.410156 C 161.390625 121.351562 161.441406 121.300781 161.488281 121.242188 C 161.527344 121.195312 161.566406 121.152344 161.605469 121.097656 C 161.644531 121.046875 161.683594 121 161.707031 120.949219 C 161.742188 120.898438 161.765625 120.847656 161.78125 120.792969 C 161.800781 120.742188 161.804688 120.691406 161.804688 120.640625 C 161.804688 120.527344 161.773438 120.445312 161.703125 120.378906 C 161.628906 120.316406 161.527344 120.277344 161.390625 120.277344 C 161.28125 120.277344 161.164062 120.289062 161.027344 120.320312 C 160.890625 120.355469 160.757812 120.40625 160.613281 120.476562 L 160.582031 119.863281 C 160.738281 119.804688 160.886719 119.765625 161.027344 119.730469 C 161.171875 119.699219 161.3125 119.6875 161.460938 119.6875 C 161.625 119.6875 161.78125 119.707031 161.914062 119.738281 C 162.058594 119.777344 162.175781 119.828125 162.269531 119.902344 C 162.367188 119.972656 162.445312 120.0625 162.503906 120.167969 C 162.5625 120.277344 162.589844 120.398438 162.589844 120.542969 C 162.589844 120.710938 162.535156 120.886719 162.441406 121.074219 C 162.34375 121.261719 162.1875 121.457031 161.980469 121.667969 C 161.921875 121.734375 161.84375 121.804688 161.753906 121.890625 C 161.664062 121.972656 161.570312 122.050781 161.480469 122.121094 L 162.648438 122.121094 L 162.648438 122.679688 L 160.523438 122.679688 Z M 121.886719 174.164062 L 136.535156 174.164062 C 136.90625 174.164062 137.214844 173.898438 137.28125 173.542969 L 137.761719 170.839844 C 137.84375 170.378906 137.488281 169.953125 137.015625 169.953125 L 122.363281 169.953125 C 121.996094 169.953125 121.683594 170.21875 121.621094 170.574219 L 121.140625 173.277344 C 121.054688 173.742188 121.414062 174.164062 121.886719 174.164062 Z M 105.441406 253.886719 C 105.441406 252.449219 104.273438 251.277344 102.832031 251.277344 L 93.539062 251.277344 C 88.003906 251.277344 83.03125 247.882812 81.011719 242.726562 L 71.074219 217.351562 C 69.046875 212.183594 64.042969 208.792969 58.496094 208.847656 L 32.25 209.085938 C 27.636719 209.132812 24.492188 213.773438 26.167969 218.074219 L 37.3125 246.710938 C 39.621094 252.65625 45.371094 256.546875 51.75 256.488281 L 60.863281 256.488281 L 66.574219 258.757812 L 69.949219 256.488281 L 102.832031 256.488281 C 104.269531 256.496094 105.441406 255.328125 105.441406 253.886719 Z M 269.6875 253.886719 C 269.6875 255.324219 270.851562 256.496094 272.296875 256.496094 L 305.179688 256.496094 L 308.550781 258.761719 L 314.261719 256.496094 L 323.378906 256.496094 C 329.753906 256.554688 335.503906 252.660156 337.816406 246.714844 L 348.957031 218.082031 C 350.628906 213.78125 347.488281 209.136719 342.878906 209.09375 L 316.632812 208.851562 C 311.082031 208.800781 306.070312 212.183594 304.050781 217.355469 L 294.113281 242.734375 C 292.09375 247.886719 287.121094 251.28125 281.585938 251.28125 L 272.296875 251.28125 C 270.859375 251.28125 269.6875 252.449219 269.6875 253.886719 Z M 174.25 107.246094 L 174.25 106.683594 C 174.378906 106.570312 174.496094 106.472656 174.59375 106.382812 C 174.6875 106.292969 174.78125 106.214844 174.859375 106.144531 C 174.933594 106.074219 175 106.007812 175.058594 105.949219 C 175.117188 105.890625 175.167969 105.839844 175.214844 105.78125 C 175.253906 105.734375 175.292969 105.691406 175.332031 105.640625 C 175.367188 105.585938 175.40625 105.542969 175.433594 105.488281 C 175.464844 105.4375 175.492188 105.386719 175.503906 105.335938 C 175.523438 105.28125 175.53125 105.230469 175.53125 105.179688 C 175.53125 105.070312 175.5 104.984375 175.425781 104.921875 C 175.355469 104.855469 175.253906 104.816406 175.117188 104.816406 C 175.007812 104.816406 174.890625 104.828125 174.753906 104.863281 C 174.617188 104.894531 174.480469 104.945312 174.339844 105.015625 L 174.308594 104.402344 C 174.460938 104.34375 174.613281 104.304688 174.753906 104.273438 C 174.894531 104.238281 175.039062 104.226562 175.1875 104.226562 C 175.347656 104.226562 175.503906 104.246094 175.640625 104.277344 C 175.785156 104.316406 175.898438 104.371094 175.996094 104.441406 C 176.09375 104.511719 176.171875 104.601562 176.230469 104.707031 C 176.289062 104.816406 176.3125 104.941406 176.3125 105.082031 C 176.3125 105.25 176.261719 105.425781 176.164062 105.613281 C 176.066406 105.800781 175.914062 105.996094 175.707031 106.207031 C 175.648438 106.273438 175.570312 106.34375 175.480469 106.429688 C 175.386719 106.511719 175.296875 106.589844 175.207031 106.664062 L 176.371094 106.664062 L 176.371094 107.21875 L 174.25 107.21875 Z M 179.039062 106.398438 C 179 106.585938 178.941406 106.746094 178.851562 106.875 C 178.761719 107.003906 178.644531 107.109375 178.503906 107.1875 C 178.355469 107.257812 178.171875 107.296875 177.953125 107.296875 C 177.730469 107.296875 177.550781 107.257812 177.402344 107.1875 C 177.253906 107.117188 177.136719 107.011719 177.050781 106.875 C 176.960938 106.746094 176.902344 106.585938 176.863281 106.398438 C 176.824219 106.207031 176.8125 106 176.8125 105.769531 C 176.8125 105.574219 176.824219 105.386719 176.859375 105.203125 C 176.890625 105.023438 176.941406 104.863281 177.027344 104.71875 C 177.109375 104.578125 177.21875 104.464844 177.371094 104.382812 C 177.519531 104.296875 177.710938 104.253906 177.957031 104.253906 C 178.199219 104.253906 178.390625 104.296875 178.542969 104.382812 C 178.691406 104.464844 178.808594 104.582031 178.890625 104.71875 C 178.976562 104.863281 179.027344 105.023438 179.058594 105.203125 C 179.089844 105.386719 179.105469 105.574219 179.105469 105.769531 C 179.089844 106 179.070312 106.207031 179.039062 106.398438 Z M 178.320312 105.425781 C 178.316406 105.308594 178.296875 105.199219 178.277344 105.109375 C 178.257812 105.015625 178.210938 104.933594 178.160156 104.875 C 178.109375 104.816406 178.035156 104.785156 177.953125 104.785156 C 177.863281 104.785156 177.789062 104.816406 177.738281 104.875 C 177.6875 104.933594 177.648438 105.011719 177.621094 105.109375 C 177.597656 105.203125 177.582031 105.308594 177.570312 105.425781 C 177.558594 105.542969 177.558594 105.660156 177.558594 105.773438 C 177.558594 105.890625 177.5625 106.007812 177.570312 106.125 C 177.578125 106.242188 177.597656 106.351562 177.621094 106.441406 C 177.648438 106.539062 177.6875 106.617188 177.738281 106.675781 C 177.789062 106.734375 177.855469 106.765625 177.945312 106.765625 C 178.035156 106.765625 178.109375 106.734375 178.160156 106.675781 C 178.210938 106.617188 178.25 106.539062 178.277344 106.441406 C 178.300781 106.34375 178.316406 106.242188 178.320312 106.125 C 178.328125 106.007812 178.335938 105.890625 178.335938 105.773438 C 178.335938 105.660156 178.328125 105.542969 178.320312 105.425781 Z M 179.414062 107.246094 L 179.414062 106.683594 C 179.542969 106.570312 179.660156 106.472656 179.757812 106.382812 C 179.855469 106.292969 179.945312 106.214844 180.023438 106.144531 C 180.101562 106.074219 180.167969 106.007812 180.226562 105.949219 C 180.28125 105.890625 180.335938 105.839844 180.378906 105.78125 C 180.417969 105.734375 180.457031 105.691406 180.496094 105.640625 C 180.535156 105.585938 180.574219 105.542969 180.601562 105.488281 C 180.632812 105.4375 180.660156 105.386719 180.671875 105.335938 C 180.691406 105.28125 180.699219 105.230469 180.699219 105.179688 C 180.699219 105.070312 180.664062 104.984375 180.59375 104.921875 C 180.523438 104.855469 180.417969 104.816406 180.28125 104.816406 C 180.171875 104.816406 180.054688 104.828125 179.921875 104.863281 C 179.785156 104.894531 179.648438 104.945312 179.507812 105.015625 L 179.472656 104.402344 C 179.628906 104.34375 179.777344 104.304688 179.921875 104.273438 C 180.0625 104.238281 180.207031 104.226562 180.355469 104.226562 C 180.515625 104.226562 180.671875 104.246094 180.808594 104.277344 C 180.949219 104.316406 181.066406 104.371094 181.164062 104.441406 C 181.261719 104.511719 181.339844 104.601562 181.398438 104.707031 C 181.453125 104.816406 181.480469 104.941406 181.480469 105.082031 C 181.480469 105.25 181.429688 105.425781 181.332031 105.613281 C 181.234375 105.800781 181.078125 105.996094 180.871094 106.207031 C 180.8125 106.273438 180.734375 106.34375 180.644531 106.429688 C 180.554688 106.511719 180.464844 106.589844 180.375 106.664062 L 181.539062 106.664062 L 181.539062 107.21875 L 179.414062 107.21875 Z M 184.207031 106.398438 C 184.167969 106.585938 184.109375 106.746094 184.019531 106.875 C 183.929688 107.003906 183.8125 107.109375 183.667969 107.1875 C 183.519531 107.257812 183.339844 107.296875 183.117188 107.296875 C 182.898438 107.296875 182.71875 107.257812 182.566406 107.1875 C 182.417969 107.117188 182.304688 107.011719 182.21875 106.875 C 182.128906 106.746094 182.070312 106.585938 182.03125 106.398438 C 181.992188 106.207031 181.980469 106 181.980469 105.769531 C 181.980469 105.574219 181.992188 105.386719 182.023438 105.203125 C 182.058594 105.023438 182.109375 104.863281 182.191406 104.71875 C 182.277344 104.578125 182.386719 104.464844 182.535156 104.382812 C 182.683594 104.296875 182.878906 104.253906 183.125 104.253906 C 183.363281 104.253906 183.558594 104.296875 183.707031 104.382812 C 183.855469 104.464844 183.972656 104.582031 184.058594 104.71875 C 184.140625 104.863281 184.195312 105.023438 184.226562 105.203125 C 184.257812 105.386719 184.269531 105.574219 184.269531 105.769531 C 184.257812 106 184.238281 106.207031 184.207031 106.398438 Z M 183.488281 105.425781 C 183.480469 105.308594 183.460938 105.199219 183.441406 105.109375 C 183.421875 105.015625 183.378906 104.933594 183.324219 104.875 C 183.273438 104.816406 183.203125 104.785156 183.117188 104.785156 C 183.027344 104.785156 182.957031 104.816406 182.90625 104.875 C 182.851562 104.933594 182.8125 105.011719 182.789062 105.109375 C 182.761719 105.203125 182.75 105.308594 182.738281 105.425781 C 182.722656 105.542969 182.722656 105.660156 182.722656 105.773438 C 182.722656 105.890625 182.730469 106.007812 182.738281 106.125 C 182.742188 106.242188 182.761719 106.351562 182.789062 106.441406 C 182.8125 106.539062 182.851562 106.617188 182.90625 106.675781 C 182.957031 106.734375 183.027344 106.765625 183.117188 106.765625 C 183.210938 106.765625 183.28125 106.734375 183.332031 106.675781 C 183.382812 106.617188 183.421875 106.539062 183.449219 106.441406 C 183.476562 106.34375 183.488281 106.242188 183.496094 106.125 C 183.5 106.007812 183.507812 105.890625 183.507812 105.773438 C 183.507812 105.660156 183.496094 105.542969 183.488281 105.425781 Z M 179.628906 123.703125 L 179.628906 123.140625 C 179.757812 123.027344 179.875 122.933594 179.972656 122.839844 C 180.070312 122.75 180.160156 122.671875 180.238281 122.601562 C 180.316406 122.53125 180.378906 122.464844 180.4375 122.40625 C 180.496094 122.347656 180.546875 122.296875 180.59375 122.238281 C 180.632812 122.195312 180.671875 122.148438 180.710938 122.097656 C 180.75 122.042969 180.789062 122 180.8125 121.949219 C 180.847656 121.894531 180.871094 121.84375 180.886719 121.792969 C 180.90625 121.738281 180.910156 121.6875 180.910156 121.636719 C 180.910156 121.527344 180.878906 121.441406 180.808594 121.378906 C 180.734375 121.3125 180.632812 121.273438 180.496094 121.273438 C 180.386719 121.273438 180.269531 121.285156 180.132812 121.320312 C 180 121.351562 179.863281 121.402344 179.71875 121.476562 L 179.6875 120.859375 C 179.84375 120.800781 179.992188 120.761719 180.132812 120.730469 C 180.277344 120.699219 180.417969 120.683594 180.566406 120.683594 C 180.730469 120.683594 180.886719 120.703125 181.019531 120.734375 C 181.164062 120.773438 181.28125 120.828125 181.378906 120.898438 C 181.472656 120.96875 181.550781 121.058594 181.609375 121.164062 C 181.667969 121.273438 181.695312 121.398438 181.695312 121.539062 C 181.695312 121.707031 181.640625 121.882812 181.546875 122.070312 C 181.449219 122.257812 181.292969 122.453125 181.085938 122.667969 C 181.027344 122.730469 180.949219 122.800781 180.859375 122.886719 C 180.769531 122.972656 180.679688 123.046875 180.585938 123.121094 L 181.753906 123.121094 L 181.753906 123.675781 L 179.628906 123.675781 Z M 184.414062 122.855469 C 184.375 123.042969 184.316406 123.203125 184.226562 123.332031 C 184.136719 123.464844 184.019531 123.566406 183.875 123.644531 C 183.726562 123.714844 183.546875 123.753906 183.324219 123.753906 C 183.105469 123.753906 182.925781 123.714844 182.777344 123.644531 C 182.625 123.574219 182.511719 123.46875 182.425781 123.332031 C 182.335938 123.203125 182.277344 123.042969 182.238281 122.855469 C 182.199219 122.667969 182.1875 122.460938 182.1875 122.226562 C 182.1875 122.03125 182.199219 121.84375 182.230469 121.664062 C 182.265625 121.480469 182.316406 121.320312 182.398438 121.175781 C 182.484375 121.035156 182.59375 120.925781 182.742188 120.839844 C 182.890625 120.753906 183.085938 120.710938 183.332031 120.710938 C 183.570312 120.710938 183.765625 120.753906 183.914062 120.839844 C 184.0625 120.925781 184.179688 121.039062 184.265625 121.175781 C 184.347656 121.320312 184.402344 121.480469 184.433594 121.664062 C 184.464844 121.84375 184.476562 122.03125 184.476562 122.226562 C 184.472656 122.453125 184.453125 122.660156 184.414062 122.855469 Z M 183.703125 121.875 C 183.695312 121.757812 183.675781 121.648438 183.65625 121.558594 C 183.636719 121.46875 183.589844 121.382812 183.539062 121.324219 C 183.488281 121.265625 183.417969 121.234375 183.332031 121.234375 C 183.242188 121.234375 183.171875 121.265625 183.117188 121.324219 C 183.066406 121.382812 183.027344 121.460938 183.003906 121.558594 C 182.976562 121.65625 182.964844 121.757812 182.949219 121.875 C 182.9375 121.992188 182.9375 122.109375 182.9375 122.226562 C 182.9375 122.34375 182.945312 122.460938 182.949219 122.574219 C 182.957031 122.691406 182.976562 122.800781 183.003906 122.894531 C 183.027344 122.988281 183.066406 123.066406 183.117188 123.125 C 183.171875 123.183594 183.242188 123.21875 183.332031 123.21875 C 183.421875 123.21875 183.496094 123.183594 183.546875 123.125 C 183.597656 123.066406 183.636719 122.988281 183.664062 122.894531 C 183.6875 122.796875 183.703125 122.691406 183.707031 122.574219 C 183.714844 122.460938 183.722656 122.34375 183.722656 122.226562 C 183.722656 122.109375 183.707031 121.992188 183.703125 121.875 Z M 184.796875 123.703125 L 184.796875 123.140625 C 184.925781 123.027344 185.042969 122.933594 185.136719 122.839844 C 185.234375 122.75 185.328125 122.671875 185.402344 122.601562 C 185.480469 122.53125 185.546875 122.464844 185.605469 122.40625 C 185.664062 122.347656 185.714844 122.296875 185.761719 122.238281 C 185.800781 122.195312 185.835938 122.148438 185.875 122.097656 C 185.914062 122.042969 185.953125 122 185.980469 121.949219 C 186.011719 121.894531 186.039062 121.84375 186.050781 121.792969 C 186.070312 121.738281 186.078125 121.6875 186.078125 121.636719 C 186.078125 121.527344 186.046875 121.441406 185.972656 121.378906 C 185.902344 121.3125 185.800781 121.273438 185.664062 121.273438 C 185.554688 121.273438 185.4375 121.285156 185.300781 121.320312 C 185.164062 121.351562 185.027344 121.402344 184.886719 121.476562 L 184.855469 120.859375 C 185.007812 120.800781 185.15625 120.761719 185.300781 120.730469 C 185.441406 120.699219 185.585938 120.683594 185.734375 120.683594 C 185.894531 120.683594 186.050781 120.703125 186.1875 120.734375 C 186.328125 120.773438 186.445312 120.828125 186.542969 120.898438 C 186.640625 120.96875 186.71875 121.058594 186.777344 121.164062 C 186.835938 121.273438 186.859375 121.398438 186.859375 121.539062 C 186.859375 121.707031 186.808594 121.882812 186.710938 122.070312 C 186.613281 122.257812 186.460938 122.453125 186.253906 122.667969 C 186.195312 122.730469 186.117188 122.800781 186.027344 122.886719 C 185.933594 122.972656 185.84375 123.046875 185.753906 123.121094 L 186.917969 123.121094 L 186.917969 123.675781 L 184.796875 123.675781 Z M 188.382812 123.703125 L 188.382812 121.539062 L 187.824219 121.933594 L 187.476562 121.402344 L 188.472656 120.753906 L 189.164062 120.753906 L 189.164062 123.703125 Z M 188.382812 123.703125 " fill-opacity="1" fill-rule="nonzero"/><g clip-path="url(#121b38359e)"><path fill="#010101" d="M 225.472656 274.402344 C 225.472656 275.460938 224.617188 276.320312 223.558594 276.320312 C 222.5 276.320312 221.640625 275.464844 221.640625 274.402344 C 221.640625 273.347656 222.496094 272.488281 223.558594 272.488281 C 224.613281 272.488281 225.472656 273.339844 225.472656 274.402344 Z M 225.472656 258.082031 C 225.472656 257.027344 224.617188 256.164062 223.558594 256.164062 C 222.5 256.164062 221.640625 257.019531 221.640625 258.082031 C 221.640625 259.144531 222.496094 260 223.558594 260 C 224.613281 260 225.472656 259.136719 225.472656 258.082031 Z M 225.472656 241.761719 C 225.472656 240.707031 224.617188 239.84375 223.558594 239.84375 C 222.5 239.84375 221.640625 240.699219 221.640625 241.761719 C 221.640625 242.816406 222.496094 243.679688 223.558594 243.679688 C 224.613281 243.679688 225.472656 242.824219 225.472656 241.761719 Z M 223.558594 227.355469 C 224.613281 227.355469 225.472656 226.5 225.472656 225.441406 C 225.472656 224.382812 224.617188 223.523438 223.558594 223.523438 C 222.5 223.523438 221.640625 224.378906 221.640625 225.441406 C 221.640625 226.5 222.5 227.355469 223.558594 227.355469 Z M 204.003906 233.929688 L 240.117188 233.929688 L 240.117188 233.28125 L 204.003906 233.28125 Z M 204.003906 266.5625 L 240.117188 266.5625 L 240.117188 265.914062 L 204.003906 265.914062 Z M 204.003906 250.246094 L 240.117188 250.246094 L 240.117188 249.597656 L 204.003906 249.597656 Z M 138.285156 169.695312 L 138.929688 169.078125 L 139.578125 169.695312 L 140.027344 169.226562 L 139.402344 168.632812 L 140.027344 168.035156 L 139.578125 167.570312 L 138.929688 168.183594 L 138.285156 167.570312 L 137.835938 168.035156 L 138.460938 168.632812 L 137.835938 169.226562 Z M 66.25 290.667969 L 66.25 259.476562 C 67.929688 259.234375 69.371094 258.113281 69.992188 256.503906 L 60.863281 256.503906 C 61.394531 257.867188 62.507812 258.878906 63.855469 259.304688 L 63.855469 290.726562 C 61.847656 290.925781 59.867188 291.496094 58.023438 292.453125 L 51.820312 295.53125 L 79.039062 295.53125 L 72.835938 292.453125 C 70.765625 291.371094 68.515625 290.785156 66.25 290.667969 Z M 140.148438 272.488281 C 139.09375 272.488281 138.230469 273.339844 138.230469 274.402344 C 138.230469 275.460938 139.085938 276.320312 140.148438 276.320312 C 141.203125 276.320312 142.066406 275.464844 142.066406 274.402344 C 142.066406 273.339844 141.203125 272.488281 140.148438 272.488281 Z M 142.066406 258.082031 C 142.066406 257.027344 141.210938 256.164062 140.148438 256.164062 C 139.09375 256.164062 138.230469 257.019531 138.230469 258.082031 C 138.230469 259.144531 139.085938 260 140.148438 260 C 141.203125 260 142.066406 259.136719 142.066406 258.082031 Z M 142.066406 241.761719 C 142.066406 240.707031 141.210938 239.84375 140.148438 239.84375 C 139.09375 239.84375 138.230469 240.699219 138.230469 241.761719 C 138.230469 242.816406 139.085938 243.679688 140.148438 243.679688 C 141.203125 243.679688 142.066406 242.824219 142.066406 241.761719 Z M 138.230469 225.445312 C 138.230469 226.5 139.085938 227.363281 140.148438 227.363281 C 141.203125 227.363281 142.066406 226.507812 142.066406 225.445312 C 142.066406 224.390625 141.210938 223.527344 140.148438 223.527344 C 139.09375 223.527344 138.230469 224.390625 138.230469 225.445312 Z M 123.585938 233.929688 L 158.984375 233.929688 L 158.984375 233.28125 L 123.585938 233.28125 Z M 123.585938 266.5625 L 158.984375 266.5625 L 158.984375 265.914062 L 123.585938 265.914062 Z M 123.585938 250.246094 L 158.984375 250.246094 L 158.984375 249.597656 L 123.585938 249.597656 Z M 317.105469 292.453125 C 315.265625 291.496094 313.285156 290.925781 311.269531 290.726562 L 311.269531 259.304688 C 312.617188 258.886719 313.738281 257.867188 314.261719 256.503906 L 305.132812 256.503906 C 305.753906 258.113281 307.199219 259.234375 308.875 259.476562 L 308.875 290.667969 C 306.609375 290.785156 304.363281 291.378906 302.289062 292.453125 L 296.089844 295.53125 L 323.304688 295.53125 Z M 206.683594 83.269531 C 206.683594 81.222656 205.027344 79.5625 202.980469 79.5625 L 134.308594 79.5625 C 132.261719 79.5625 130.605469 81.222656 130.605469 83.269531 C 130.605469 85.316406 132.261719 86.972656 134.308594 86.972656 L 202.980469 86.972656 C 205.027344 86.964844 206.683594 85.308594 206.683594 83.269531 Z M 206.683594 83.269531 " fill-opacity="1" fill-rule="nonzero"/></g></svg>