<svg xmlns="http://www.w3.org/2000/svg" xmlns:xlink="http://www.w3.org/1999/xlink" width="500" zoomAndPan="magnify" viewBox="0 0 375 374.999991" height="500" preserveAspectRatio="xMidYMid meet" version="1.0"><defs><clipPath id="163dd253fc"><path d="M 51 118 L 310 118 L 310 332.136719 L 51 332.136719 Z M 51 118 " clip-rule="nonzero"/></clipPath><clipPath id="f7e2402860"><path d="M 39.679688 42.636719 L 335.179688 42.636719 L 335.179688 294 L 39.679688 294 Z M 39.679688 42.636719 " clip-rule="nonzero"/></clipPath><clipPath id="e66b84f3c4"><path d="M 67 118 L 276 118 L 276 332.136719 L 67 332.136719 Z M 67 118 " clip-rule="nonzero"/></clipPath></defs><g clip-path="url(#163dd253fc)"><path fill="#812918" d="M 290.074219 250.671875 L 299.105469 250.671875 L 299.105469 243.640625 L 257.988281 243.640625 L 257.988281 235.007812 L 254.210938 235.007812 L 254.210938 225.886719 L 240.6875 225.886719 C 241.367188 221.214844 241.890625 216.53125 242.351562 211.84375 C 248.832031 217.195312 256.394531 222.066406 265.054688 226.453125 C 267.464844 227.671875 270.316406 227.785156 272.804688 226.722656 C 276.941406 224.949219 281.183594 222.660156 285.507812 219.925781 C 287.335938 218.765625 288.28125 216.609375 287.902344 214.472656 L 282.820312 185.710938 L 285.105469 185.429688 C 285.171875 185.421875 285.21875 185.363281 285.203125 185.296875 L 283.878906 177.703125 C 283.863281 177.636719 283.8125 177.597656 283.746094 177.605469 L 280.800781 178.007812 L 279.230469 170.675781 C 279.09375 170.042969 279.027344 169.394531 279.027344 168.75 L 279.027344 157.988281 C 279.027344 156.960938 278.484375 156.007812 277.601562 155.480469 L 267.667969 149.550781 C 266.71875 148.988281 265.503906 149.207031 264.8125 150.066406 L 262.222656 153.257812 C 262.117188 153.390625 262.027344 153.527344 261.949219 153.671875 C 261.898438 153.761719 261.867188 153.859375 261.828125 153.953125 C 261.808594 154.007812 261.777344 154.058594 261.761719 154.109375 C 261.714844 154.257812 261.679688 154.40625 261.660156 154.554688 C 261.65625 154.558594 261.65625 154.5625 261.65625 154.566406 C 261.546875 155.332031 261.773438 156.128906 262.316406 156.738281 C 262.324219 156.75 262.328125 156.757812 262.335938 156.769531 C 262.296875 156.789062 262.257812 156.808594 262.21875 156.828125 C 262 156.972656 261.808594 157.195312 261.695312 157.386719 C 261.578125 157.578125 261.472656 157.777344 261.359375 157.96875 C 261.136719 158.359375 260.902344 158.746094 260.699219 159.148438 C 260.734375 159.117188 260.765625 159.082031 260.792969 159.050781 C 260.785156 159.0625 260.78125 159.074219 260.773438 159.089844 C 260.734375 159.15625 260.699219 159.222656 260.667969 159.292969 C 260.65625 159.324219 260.644531 159.351562 260.632812 159.382812 C 260.605469 159.453125 260.578125 159.523438 260.558594 159.59375 C 260.550781 159.628906 260.542969 159.660156 260.535156 159.695312 C 260.519531 159.765625 260.507812 159.832031 260.5 159.902344 C 260.492188 159.945312 260.492188 159.984375 260.488281 160.027344 C 260.484375 160.089844 260.480469 160.152344 260.480469 160.214844 C 260.484375 160.269531 260.488281 160.320312 260.496094 160.371094 C 260.5 160.425781 260.503906 160.476562 260.511719 160.53125 C 260.523438 160.597656 260.542969 160.664062 260.558594 160.726562 C 260.570312 160.765625 260.578125 160.804688 260.589844 160.84375 C 260.617188 160.925781 260.652344 161.007812 260.691406 161.085938 C 260.699219 161.105469 260.707031 161.128906 260.71875 161.148438 C 260.769531 161.246094 260.828125 161.347656 260.898438 161.4375 L 266.191406 168.636719 C 267.015625 169.757812 267.457031 171.113281 267.457031 172.503906 L 267.457031 179.832031 L 264.667969 180.214844 C 264.613281 180.222656 264.566406 180.277344 264.566406 180.328125 L 264.566406 187.828125 C 264.566406 187.902344 264.625 187.957031 264.699219 187.949219 L 266.605469 187.710938 L 266.59375 188.019531 C 266.132812 191.695312 265.878906 195.378906 265.695312 199.070312 L 247.664062 179.390625 C 245.902344 177.472656 243.832031 175.855469 241.539062 174.621094 L 226.175781 166.335938 L 218.164062 158.105469 L 218.15625 158.101562 L 215.429688 152.316406 C 217.363281 150.679688 218.230469 148.792969 218.375 147.035156 C 221.035156 133.207031 216.652344 122.527344 209.070312 122.699219 C 208.8125 122.703125 208.582031 122.566406 208.460938 122.347656 C 206.878906 119.433594 203.691406 118.566406 200.734375 120.019531 C 200.503906 120.132812 200.230469 120.105469 200.027344 119.945312 C 197.84375 118.304688 194.925781 118.59375 192.972656 120.632812 C 192.773438 120.835938 192.484375 120.890625 192.226562 120.769531 C 189.613281 119.558594 186.773438 120.929688 185.59375 123.363281 C 185.507812 123.550781 185.335938 123.6875 185.132812 123.726562 C 179.5625 124.875 177.890625 131.546875 181.277344 135.953125 C 181.058594 139.5625 181.304688 143.078125 181.9375 146.507812 C 182.097656 147.289062 182.265625 148.050781 182.445312 148.816406 L 179.515625 149.496094 C 179.265625 149.558594 179.097656 149.800781 179.140625 150.058594 C 179.476562 152.289062 180.289062 154.648438 181.628906 157.28125 C 181.707031 157.441406 181.878906 157.546875 182.0625 157.554688 L 182.207031 157.554688 C 183.171875 157.554688 184.113281 157.46875 185.042969 157.296875 C 185.570312 158.671875 186.136719 160.019531 186.757812 161.328125 C 186.867188 161.554688 186.980469 161.773438 187.089844 161.996094 C 187.300781 162.429688 187.511719 162.863281 187.734375 163.289062 C 188.089844 163.96875 188.457031 164.636719 188.839844 165.292969 C 189.460938 166.355469 190.550781 167.074219 191.777344 167.191406 C 191.789062 167.191406 191.800781 167.195312 191.8125 167.195312 C 192.746094 167.371094 193.691406 167.496094 194.640625 167.566406 L 189.433594 171.746094 L 177.746094 177.800781 C 175.648438 178.890625 173.699219 180.25 171.964844 181.84375 L 153.542969 198.792969 L 151.226562 188.371094 L 153.234375 188.371094 C 153.332031 188.371094 153.40625 188.277344 153.386719 188.1875 L 151.933594 181.09375 C 151.921875 181.027344 151.855469 180.972656 151.78125 180.96875 L 148.726562 180.855469 L 148.457031 176.832031 C 148.402344 175.972656 148.535156 175.117188 148.84375 174.3125 L 153.757812 161.578125 C 153.972656 161.011719 153.820312 160.363281 153.367188 159.960938 L 151.671875 158.4375 C 151.953125 157.992188 152.234375 157.539062 152.492188 157.074219 L 152.503906 157.058594 L 146.972656 152.824219 C 146.371094 152.359375 145.546875 152.328125 144.914062 152.75 L 135.824219 158.746094 C 135.277344 159.101562 134.972656 159.730469 135.03125 160.382812 L 136.398438 175.796875 C 136.425781 176.078125 136.4375 176.355469 136.4375 176.640625 L 136.4375 180.421875 L 133.476562 180.316406 C 133.390625 180.316406 133.316406 180.386719 133.316406 180.472656 L 133.316406 188.210938 C 133.316406 188.304688 133.382812 188.371094 133.46875 188.371094 L 135.832031 188.371094 L 135.832031 200.898438 L 94.601562 200.898438 C 94.199219 200.898438 93.910156 201.296875 94.035156 201.679688 L 107.808594 243.640625 L 85.671875 243.640625 L 87.171875 223.765625 L 90.945312 223.765625 L 90.945312 218.917969 L 86.734375 218.917969 L 86.734375 214.601562 L 71.207031 214.601562 L 71.207031 218.917969 L 67 218.917969 L 67 223.765625 L 70.777344 223.765625 L 72.273438 243.636719 L 62.722656 243.636719 L 62.722656 250.671875 L 71.207031 250.671875 L 51.945312 332.140625 L 59.503906 332.140625 L 83.117188 250.671875 L 87.335938 250.671875 L 87.335938 332.140625 L 94.886719 332.140625 L 94.886719 250.671875 L 179.628906 250.671875 L 138.839844 268.140625 C 136.6875 269.058594 134.875 270.617188 133.640625 272.601562 L 128.558594 280.765625 C 128.109375 281.488281 127.738281 282.261719 127.460938 283.066406 L 110.492188 332.140625 L 144.8125 332.140625 L 153.925781 305.234375 L 155.675781 305.234375 L 155.675781 332.140625 L 188.53125 332.140625 L 188.53125 305.234375 L 192.292969 305.234375 L 192.292969 332.140625 L 202.277344 332.140625 L 202.277344 305.234375 L 242.398438 305.234375 L 242.398438 286.570312 C 242.398438 284.332031 240.582031 282.519531 238.34375 282.519531 C 240.492188 272.007812 241.152344 260.621094 238.445312 250.671875 L 266.394531 250.671875 L 266.394531 332.140625 L 273.945312 332.140625 L 273.945312 250.671875 L 278.164062 250.671875 L 301.777344 332.140625 L 309.328125 332.140625 Z M 182.371094 156.558594 C 181.25 154.3125 180.539062 152.273438 180.1875 150.363281 L 182.683594 149.773438 C 182.734375 149.972656 182.789062 150.167969 182.839844 150.367188 C 183.011719 151.042969 183.195312 151.710938 183.390625 152.371094 C 183.5 152.761719 183.617188 153.152344 183.738281 153.535156 C 183.824219 153.816406 183.910156 154.09375 184 154.371094 C 184.21875 155.039062 184.441406 155.699219 184.675781 156.351562 C 183.925781 156.476562 183.152344 156.550781 182.371094 156.558594 Z M 171.953125 240.902344 L 165.082031 219.964844 L 176.394531 212.128906 C 176.453125 213.085938 176.519531 214.035156 176.585938 214.992188 C 176.902344 219.3125 177.226562 223.636719 177.628906 227.949219 L 178.226562 234.421875 C 178.464844 236.558594 178.664062 238.710938 178.925781 240.847656 L 178.933594 240.902344 Z M 171.953125 240.902344 " fill-opacity="1" fill-rule="nonzero"/></g><path fill="#81459b" d="M 285.507812 219.925781 C 281.183594 222.660156 276.941406 224.949219 272.804688 226.722656 C 270.316406 227.785156 267.464844 227.671875 265.054688 226.453125 C 256.203125 221.964844 248.488281 216.984375 241.910156 211.488281 L 240.636719 225.886719 L 224.042969 225.886719 L 224.042969 235.007812 L 218.402344 235.007812 L 218.402344 243.640625 L 187.078125 243.640625 L 187.078125 240.902344 L 178.933594 240.902344 L 176.875 211.792969 L 165.082031 219.964844 L 158.957031 201.308594 C 158.878906 201.0625 158.644531 200.898438 158.390625 200.898438 L 135.832031 200.898438 L 135.832031 188.371094 L 151.226562 188.371094 L 153.542969 198.792969 L 171.964844 181.84375 C 173.699219 180.25 175.648438 178.890625 177.746094 177.800781 L 189.433594 171.746094 C 190.542969 174.402344 192.042969 176.757812 193.863281 178.851562 C 193.894531 178.902344 193.960938 178.917969 194.015625 178.890625 L 197.507812 177.035156 C 197.722656 176.921875 197.988281 176.945312 198.1875 177.089844 L 203.855469 181.34375 L 209.042969 176.566406 C 209.179688 176.429688 209.386719 176.371094 209.578125 176.402344 L 216.757812 177.625 C 216.804688 177.628906 216.84375 177.617188 216.871094 177.582031 C 221.074219 174.191406 224.566406 170.570312 226.175781 166.335938 L 241.539062 174.621094 C 243.832031 175.855469 245.902344 177.472656 247.664062 179.390625 L 266.03125 199.441406 L 266.605469 187.710938 L 282.820312 185.710938 L 287.902344 214.472656 C 288.28125 216.609375 287.335938 218.765625 285.507812 219.925781 Z M 285.507812 219.925781 " fill-opacity="1" fill-rule="nonzero"/><g clip-path="url(#f7e2402860)"><path fill="#5e17eb" d="M 242.398438 286.570312 L 242.398438 293.878906 L 192.359375 293.878906 C 210.25 290.773438 226.328125 287.183594 238.34375 282.519531 C 240.582031 282.519531 242.398438 284.332031 242.398438 286.570312 Z M 62.722656 250.671875 L 299.105469 250.671875 L 299.105469 243.640625 L 62.722656 243.636719 Z M 65.453125 168.761719 C 65.40625 168.589844 65.226562 168.484375 65.046875 168.53125 L 58.566406 170.308594 C 58.390625 170.355469 58.285156 170.539062 58.335938 170.714844 C 58.375 170.859375 58.507812 170.957031 58.652344 170.957031 C 58.679688 170.957031 58.710938 170.953125 58.742188 170.945312 L 65.222656 169.167969 C 65.398438 169.121094 65.5 168.941406 65.453125 168.761719 Z M 71.507812 175.820312 C 71.546875 175.96875 71.679688 176.0625 71.828125 176.0625 C 71.855469 176.0625 71.886719 176.058594 71.914062 176.050781 L 78.394531 174.277344 C 78.570312 174.226562 78.675781 174.046875 78.628906 173.871094 C 78.578125 173.695312 78.398438 173.59375 78.222656 173.640625 L 71.738281 175.414062 C 71.5625 175.464844 71.460938 175.644531 71.507812 175.820312 Z M 59.445312 174.765625 C 59.484375 174.914062 59.617188 175.007812 59.761719 175.007812 C 59.792969 175.007812 59.820312 175.003906 59.851562 174.996094 L 77.285156 170.222656 C 77.460938 170.175781 77.5625 169.992188 77.515625 169.816406 C 77.46875 169.640625 77.285156 169.542969 77.109375 169.585938 L 59.675781 174.359375 C 59.5 174.410156 59.398438 174.589844 59.445312 174.765625 Z M 65.984375 194.585938 C 53.714844 194.585938 43.738281 184.601562 43.738281 172.339844 C 43.738281 160.074219 53.714844 150.097656 65.984375 150.097656 C 70.347656 150.097656 74.425781 151.359375 77.863281 153.542969 L 87.355469 142.246094 C 87.46875 142.109375 87.679688 142.085938 87.816406 142.207031 L 90.878906 144.78125 C 91.019531 144.898438 91.039062 145.101562 90.917969 145.242188 L 81.519531 156.429688 C 85.664062 160.46875 88.238281 166.109375 88.238281 172.339844 C 88.238281 184.601562 78.253906 194.585938 65.984375 194.585938 Z M 69.972656 163.972656 L 69.871094 164.085938 L 69.714844 164.722656 L 68.960938 167.757812 L 72.433594 166.230469 L 74.886719 163.3125 L 75.632812 162.421875 L 80.617188 156.484375 L 81.046875 155.976562 L 90.207031 145.070312 L 87.644531 142.925781 L 78.425781 153.902344 L 77.996094 154.414062 Z M 55.761719 183.007812 L 58.160156 182.347656 L 54.472656 168.894531 L 54.46875 168.894531 L 52.074219 169.554688 Z M 51.4375 169.726562 L 49.054688 170.378906 L 52.738281 183.832031 L 55.125 183.179688 Z M 58.796875 182.175781 L 81.746094 175.894531 L 78.054688 162.441406 L 76.003906 163.003906 L 72.886719 166.710938 C 72.855469 166.75 72.816406 166.78125 72.769531 166.800781 L 68.613281 168.636719 C 68.570312 168.65625 68.527344 168.664062 68.480469 168.664062 C 68.40625 168.664062 68.328125 168.636719 68.269531 168.589844 C 68.167969 168.503906 68.128906 168.378906 68.164062 168.253906 L 68.988281 164.921875 L 55.109375 168.722656 Z M 65.984375 193.925781 C 77.890625 193.925781 87.578125 184.238281 87.578125 172.339844 C 87.578125 166.3125 85.097656 160.859375 81.097656 156.933594 L 76.75 162.113281 L 78.203125 161.714844 C 78.285156 161.6875 78.371094 161.703125 78.453125 161.75 C 78.53125 161.789062 78.585938 161.859375 78.609375 161.945312 L 82.472656 176.03125 C 82.515625 176.210938 82.410156 176.390625 82.242188 176.441406 L 58.660156 182.902344 L 58.652344 182.902344 C 58.648438 182.902344 58.644531 182.902344 58.640625 182.902344 C 58.640625 182.902344 58.636719 182.902344 58.636719 182.902344 L 55.625 183.730469 L 55.609375 183.730469 L 52.601562 184.558594 C 52.566406 184.5625 52.539062 184.570312 52.507812 184.570312 C 52.363281 184.570312 52.230469 184.472656 52.191406 184.324219 L 48.332031 170.238281 C 48.3125 170.152344 48.316406 170.0625 48.363281 169.988281 C 48.402344 169.910156 48.476562 169.855469 48.5625 169.832031 L 51.574219 169.007812 C 51.578125 169.007812 51.578125 169.003906 51.582031 169.003906 C 51.585938 169.003906 51.589844 169.003906 51.589844 169.003906 L 54.613281 168.175781 L 54.617188 168.175781 C 54.617188 168.175781 54.617188 168.175781 54.617188 168.171875 L 69.167969 164.191406 L 69.25 163.847656 C 69.265625 163.800781 69.285156 163.753906 69.316406 163.714844 L 77.4375 154.050781 C 74.117188 151.964844 70.1875 150.757812 65.984375 150.757812 C 54.078125 150.757812 44.398438 160.441406 44.398438 172.339844 C 44.398438 184.238281 54.078125 193.925781 65.984375 193.925781 Z M 56.304688 106.738281 C 56.304688 92.042969 68.261719 80.089844 82.960938 80.089844 C 97.65625 80.089844 109.617188 92.042969 109.617188 106.738281 C 109.617188 121.429688 97.65625 133.386719 82.960938 133.386719 C 68.261719 133.386719 56.304688 121.429688 56.304688 106.738281 Z M 56.964844 106.738281 C 56.964844 121.066406 68.625 132.726562 82.960938 132.726562 C 97.292969 132.726562 108.957031 121.066406 108.957031 106.738281 C 108.957031 92.40625 97.292969 80.75 82.960938 80.75 C 68.625 80.75 56.964844 92.40625 56.964844 106.738281 Z M 65.65625 111.8125 L 65.65625 97.554688 C 65.65625 96.207031 66.75 95.113281 68.105469 95.113281 L 93.890625 95.113281 C 95.242188 95.113281 96.335938 96.207031 96.335938 97.554688 L 96.335938 102.660156 L 99.894531 102.660156 C 100.078125 102.660156 100.226562 102.804688 100.226562 102.992188 L 100.226562 120.144531 C 100.226562 120.328125 100.078125 120.472656 99.894531 120.472656 L 88.085938 120.472656 C 87.902344 120.472656 87.757812 120.328125 87.757812 120.144531 L 87.757812 116.53125 C 87.757812 116.527344 87.757812 116.527344 87.757812 116.523438 C 87.757812 116.519531 87.757812 116.519531 87.757812 116.515625 L 87.757812 114.257812 L 68.105469 114.257812 C 66.75 114.257812 65.65625 113.164062 65.65625 111.8125 Z M 99.566406 116.851562 L 88.417969 116.851562 L 88.417969 119.8125 L 99.566406 119.8125 Z M 99.566406 111.898438 L 88.417969 111.898438 L 88.417969 116.195312 L 99.566406 116.195312 Z M 99.566406 106.941406 L 88.417969 106.941406 L 88.417969 111.238281 L 99.566406 111.238281 Z M 96.335938 103.320312 L 88.417969 103.320312 L 88.417969 106.28125 L 99.566406 106.28125 L 99.566406 103.320312 Z M 66.316406 107.140625 L 87.757812 107.140625 L 87.757812 102.992188 C 87.757812 102.804688 87.902344 102.660156 88.089844 102.660156 L 95.675781 102.660156 L 95.675781 97.554688 C 95.675781 96.570312 94.871094 95.773438 93.890625 95.773438 L 68.105469 95.773438 C 67.113281 95.773438 66.316406 96.570312 66.316406 97.554688 Z M 66.316406 111.8125 C 66.316406 112.800781 67.113281 113.597656 68.105469 113.597656 L 87.757812 113.597656 L 87.757812 107.800781 L 66.316406 107.800781 Z M 122.007812 80.714844 C 122.007812 59.71875 139.09375 42.636719 160.09375 42.636719 C 181.097656 42.636719 198.183594 59.71875 198.183594 80.714844 C 198.183594 101.707031 181.097656 118.789062 160.09375 118.789062 C 139.09375 118.789062 122.007812 101.707031 122.007812 80.714844 Z M 122.667969 80.714844 C 122.667969 101.34375 139.457031 118.128906 160.09375 118.128906 C 180.734375 118.128906 197.523438 101.34375 197.523438 80.714844 C 197.523438 60.082031 180.734375 43.296875 160.09375 43.296875 C 139.457031 43.296875 122.667969 60.082031 122.667969 80.714844 Z M 178.5 89.117188 C 178.828125 89.816406 178.835938 90.46875 178.511719 91.0625 C 178.175781 91.675781 177.714844 92.164062 177.125 92.511719 L 177.285156 92.910156 C 177.351562 93.101562 177.363281 93.285156 177.316406 93.46875 C 177.269531 93.65625 177.199219 93.773438 177.101562 93.839844 C 176.847656 93.996094 176.617188 93.878906 176.421875 93.488281 L 176.25 93.023438 C 175.679688 93.140625 175.113281 93.128906 174.550781 92.980469 C 173.996094 92.835938 173.660156 92.566406 173.535156 92.175781 C 173.484375 92.019531 173.484375 91.867188 173.523438 91.714844 C 173.570312 91.570312 173.640625 91.464844 173.753906 91.40625 C 173.859375 91.347656 174.039062 91.359375 174.292969 91.453125 C 174.300781 91.457031 174.40625 91.503906 174.59375 91.578125 C 175.199219 91.8125 175.632812 91.917969 175.898438 91.894531 C 175.746094 91.378906 175.542969 90.765625 175.285156 90.066406 C 175.039062 89.394531 174.847656 88.800781 174.710938 88.285156 C 173.628906 88.363281 172.890625 88.257812 172.511719 87.96875 C 172.359375 87.84375 172.234375 87.625 172.136719 87.316406 C 172.039062 87.011719 172.003906 86.640625 172.042969 86.210938 C 172.082031 85.796875 172.195312 85.40625 172.386719 85.039062 C 172.574219 84.675781 172.824219 84.378906 173.148438 84.148438 L 173.035156 83.855469 C 173.007812 83.746094 173.019531 83.644531 173.066406 83.554688 C 173.121094 83.46875 173.1875 83.402344 173.265625 83.371094 C 173.445312 83.289062 173.59375 83.335938 173.742188 83.507812 L 173.859375 83.792969 C 174.316406 83.625 174.757812 83.582031 175.179688 83.652344 C 175.609375 83.71875 175.953125 83.902344 176.214844 84.207031 C 176.28125 84.378906 176.269531 84.53125 176.183594 84.65625 C 176.148438 84.707031 176.097656 84.75 176.03125 84.78125 C 175.886719 84.855469 175.734375 84.820312 175.589844 84.675781 C 175.332031 84.34375 174.894531 84.285156 174.269531 84.496094 L 174.386719 84.792969 L 175.316406 87.269531 C 176.808594 87.148438 177.851562 87.738281 178.5 89.117188 Z M 174.445312 87.347656 L 174.058594 86.324219 L 173.6875 85.261719 C 173.613281 85.066406 173.554688 84.933594 173.53125 84.878906 C 173.246094 85.105469 173.054688 85.421875 172.949219 85.835938 C 172.84375 86.257812 172.847656 86.640625 172.960938 86.976562 C 173.113281 87.335938 173.613281 87.460938 174.445312 87.347656 Z M 176.902344 88.566406 C 176.578125 88.363281 176.148438 88.265625 175.601562 88.265625 C 175.679688 88.542969 175.832031 88.957031 176.042969 89.523438 C 176.261719 90.097656 176.511719 90.785156 176.804688 91.582031 C 177.714844 90.941406 178.023438 90.324219 177.761719 89.734375 C 177.503906 89.15625 177.21875 88.773438 176.902344 88.566406 Z M 184.589844 82.253906 C 184.800781 82.4375 185.007812 82.628906 185.203125 82.820312 C 189.472656 86.996094 189.792969 93.839844 185.921875 98.40625 C 185.402344 99.027344 184.828125 99.574219 184.207031 100.046875 C 184.179688 100.074219 184.15625 100.09375 184.121094 100.113281 C 182.457031 101.378906 180.511719 102.140625 178.511719 102.378906 L 178.503906 102.378906 C 178.453125 102.40625 178.398438 102.421875 178.339844 102.421875 C 178.3125 102.421875 178.289062 102.40625 178.261719 102.402344 C 178.253906 102.402344 178.242188 102.402344 178.234375 102.402344 C 177.878906 102.441406 177.523438 102.457031 177.164062 102.457031 C 174.546875 102.457031 171.914062 101.566406 169.761719 99.746094 C 168.066406 98.304688 166.832031 96.417969 166.195312 94.300781 C 165.074219 90.574219 165.914062 86.570312 168.433594 83.585938 C 172.519531 78.769531 179.765625 78.171875 184.589844 82.253906 Z M 171.433594 100.152344 L 169.378906 96.621094 C 169.378906 96.621094 169.378906 96.617188 169.378906 96.617188 C 169.378906 96.617188 169.378906 96.609375 169.371094 96.609375 C 168.632812 96.261719 167.933594 95.824219 167.273438 95.3125 C 167.917969 96.820312 168.917969 98.160156 170.191406 99.242188 C 170.585938 99.578125 171 99.882812 171.429688 100.152344 Z M 177.78125 101.78125 L 175.394531 97.679688 C 175.390625 97.679688 175.390625 97.679688 175.390625 97.679688 C 175.351562 97.6875 175.304688 97.6875 175.265625 97.691406 C 174.941406 97.71875 174.617188 97.730469 174.300781 97.730469 C 172.957031 97.730469 171.636719 97.496094 170.394531 97.046875 C 170.390625 97.046875 170.390625 97.042969 170.386719 97.042969 L 172.550781 100.757812 C 172.550781 100.757812 172.550781 100.761719 172.550781 100.761719 C 172.550781 100.761719 172.550781 100.765625 172.558594 100.765625 C 174.210938 101.546875 176.003906 101.882812 177.78125 101.78125 Z M 183.523438 99.738281 L 181.074219 95.53125 C 181.074219 95.535156 181.074219 95.535156 181.074219 95.535156 C 179.613281 96.605469 177.917969 97.308594 176.101562 97.585938 L 178.5 101.710938 C 180.289062 101.492188 182.023438 100.832031 183.519531 99.738281 C 183.523438 99.738281 183.523438 99.738281 183.523438 99.738281 Z M 185.488281 88.867188 L 187.8125 92.859375 C 188.324219 89.859375 187.578125 86.699219 185.601562 84.238281 C 185.878906 85.789062 185.839844 87.359375 185.488281 88.863281 C 185.488281 88.867188 185.488281 88.867188 185.488281 88.867188 Z M 183.066406 93.679688 C 182.617188 94.210938 182.128906 94.691406 181.601562 95.121094 L 184.050781 99.332031 C 184.539062 98.929688 184.992188 98.484375 185.414062 97.984375 C 186.472656 96.734375 187.203125 95.304688 187.601562 93.8125 L 185.246094 89.761719 C 185.246094 89.761719 185.242188 89.761719 185.242188 89.761719 C 184.796875 91.175781 184.0625 92.511719 183.066406 93.679688 Z M 181.285156 81.007812 L 177.1875 80.203125 C 174.125 80.203125 171.074219 81.503906 168.9375 84.015625 C 167.054688 86.234375 166.171875 89.0625 166.40625 91.886719 C 166.414062 91.980469 166.421875 92.070312 166.433594 92.164062 C 166.433594 92.203125 166.441406 92.25 166.449219 92.296875 C 166.472656 92.492188 166.5 92.699219 166.539062 92.894531 C 166.605469 93.277344 166.691406 93.65625 166.804688 94.03125 L 166.8125 94.039062 C 166.980469 94.203125 167.152344 94.355469 167.339844 94.511719 C 169.535156 96.375 172.335938 97.269531 175.207031 97.03125 C 178.082031 96.796875 180.695312 95.457031 182.558594 93.253906 C 184.921875 90.46875 185.710938 86.734375 184.683594 83.238281 L 184.683594 83.230469 C 184.519531 83.074219 184.339844 82.914062 184.160156 82.761719 C 183.910156 82.550781 183.648438 82.347656 183.382812 82.160156 C 183.046875 81.925781 182.703125 81.714844 182.351562 81.515625 C 182.003906 81.332031 181.648438 81.160156 181.285156 81.007812 Z M 154.058594 94.070312 C 154.210938 94.316406 154.265625 94.566406 154.230469 94.828125 C 154.179688 94.941406 154.097656 95 154 95.015625 C 153.960938 95.019531 153.914062 95.015625 153.867188 94.996094 C 153.769531 94.953125 153.722656 94.863281 153.730469 94.730469 C 153.78125 94.453125 153.628906 94.210938 153.261719 93.996094 L 153.164062 94.183594 L 152.296875 95.785156 C 153.011719 96.492188 153.164062 97.328125 152.726562 98.359375 C 152.496094 98.898438 152.144531 99.25 151.664062 99.386719 C 151.167969 99.527344 150.679688 99.535156 150.210938 99.394531 L 150.054688 99.691406 C 149.972656 99.835938 149.867188 99.949219 149.742188 100.023438 C 149.613281 100.101562 149.507812 100.128906 149.421875 100.101562 C 149.214844 100.042969 149.183594 99.851562 149.320312 99.527344 L 149.519531 99.171875 C 149.195312 98.917969 148.945312 98.597656 148.785156 98.207031 C 148.621094 97.824219 148.628906 97.5 148.804688 97.238281 C 148.871094 97.125 148.964844 97.046875 149.070312 97 C 149.167969 96.945312 149.261719 96.933594 149.347656 96.960938 C 149.425781 96.992188 149.5 97.097656 149.558594 97.277344 C 149.558594 97.289062 149.578125 97.363281 149.617188 97.507812 C 149.75 97.957031 149.882812 98.246094 150.015625 98.386719 C 150.246094 98.027344 150.496094 97.601562 150.773438 97.117188 C 151.035156 96.65625 151.273438 96.265625 151.492188 95.945312 C 150.976562 95.421875 150.71875 95 150.71875 94.671875 C 150.71875 94.539062 150.785156 94.375 150.90625 94.183594 C 151.023438 93.996094 151.207031 93.820312 151.445312 93.65625 C 151.675781 93.488281 151.929688 93.378906 152.191406 93.3125 C 152.457031 93.246094 152.707031 93.238281 152.957031 93.296875 L 153.054688 93.121094 C 153.101562 93.0625 153.15625 93.019531 153.222656 93.007812 C 153.28125 92.996094 153.339844 93 153.394531 93.027344 C 153.503906 93.074219 153.546875 93.171875 153.523438 93.3125 L 153.433594 93.488281 C 153.710938 93.640625 153.914062 93.832031 154.058594 94.070312 Z M 151.894531 96.398438 C 151.78125 96.578125 151.617188 96.859375 151.40625 97.25 C 151.1875 97.660156 150.917969 98.140625 150.601562 98.714844 C 151.375 98.878906 151.855469 98.726562 152.058594 98.28125 C 152.257812 97.851562 152.335938 97.5 152.304688 97.230469 C 152.269531 96.96875 152.132812 96.691406 151.894531 96.398438 Z M 152.753906 93.800781 C 152.523438 93.761719 152.277344 93.804688 152.019531 93.933594 C 151.757812 94.070312 151.566406 94.242188 151.441406 94.445312 C 151.3125 94.683594 151.460938 94.996094 151.875 95.371094 L 152.246094 94.703125 L 152.628906 94.050781 C 152.699219 93.917969 152.738281 93.839844 152.753906 93.800781 Z M 158.519531 95.863281 C 159.226562 97.613281 159.328125 99.480469 158.804688 101.28125 C 158.09375 103.75 156.316406 105.722656 153.933594 106.683594 C 152.925781 107.09375 151.867188 107.296875 150.8125 107.296875 C 149.71875 107.296875 148.613281 107.074219 147.570312 106.632812 C 145.53125 105.769531 143.949219 104.160156 143.109375 102.101562 C 142.96875 101.738281 142.84375 101.367188 142.753906 100.992188 C 142.753906 100.988281 142.75 100.984375 142.75 100.980469 C 142.75 100.976562 142.75 100.972656 142.746094 100.972656 C 142.746094 100.964844 142.742188 100.957031 142.742188 100.953125 C 142.09375 98.300781 142.800781 95.429688 144.675781 93.371094 C 145.507812 92.460938 146.523438 91.753906 147.691406 91.28125 C 149.75 90.449219 152.015625 90.460938 154.054688 91.332031 C 156.097656 92.195312 157.683594 93.804688 158.519531 95.863281 Z M 143.222656 99.875 L 144.445312 97.53125 C 144.449219 97.527344 144.453125 97.523438 144.457031 97.515625 C 144.457031 97.507812 144.457031 97.507812 144.457031 97.507812 C 144.273438 96.65625 144.226562 95.792969 144.324219 94.929688 C 143.40625 96.398438 143.023438 98.15625 143.222656 99.871094 C 143.222656 99.871094 143.222656 99.871094 143.222656 99.875 Z M 144.984375 103.949219 L 146.363281 101.308594 C 145.742188 100.613281 145.242188 99.808594 144.886719 98.917969 C 144.828125 98.769531 144.765625 98.609375 144.714844 98.453125 L 144.714844 98.445312 L 143.414062 100.929688 C 143.5 101.246094 143.601562 101.554688 143.722656 101.855469 C 144.035156 102.628906 144.464844 103.332031 144.984375 103.945312 C 144.984375 103.945312 144.984375 103.945312 144.984375 103.949219 Z M 148.6875 106.328125 L 150.054688 103.714844 C 149.816406 103.636719 149.578125 103.550781 149.347656 103.453125 C 148.402344 103.050781 147.566406 102.503906 146.847656 101.808594 L 145.464844 104.457031 C 146.136719 105.117188 146.941406 105.648438 147.828125 106.027344 C 148.113281 106.144531 148.398438 106.25 148.6875 106.328125 Z M 154.445312 103.90625 C 154.445312 103.90625 154.441406 103.90625 154.441406 103.90625 C 153.828125 104.046875 153.207031 104.117188 152.589844 104.117188 C 151.960938 104.117188 151.328125 104.046875 150.707031 103.894531 L 149.347656 106.492188 C 150.632812 106.75 151.957031 106.664062 153.222656 106.246094 Z M 157.675781 102.382812 C 157.082031 102.839844 156.421875 103.214844 155.710938 103.503906 C 155.585938 103.558594 155.457031 103.605469 155.328125 103.648438 C 155.324219 103.652344 155.324219 103.652344 155.324219 103.652344 L 154.167969 105.859375 L 154.171875 105.859375 C 155.710938 105.109375 156.929688 103.902344 157.675781 102.382812 Z M 157.90625 96.109375 C 157.523438 95.164062 156.96875 94.320312 156.269531 93.617188 C 155.578125 92.910156 154.738281 92.34375 153.796875 91.941406 C 151.914062 91.140625 149.835938 91.121094 147.941406 91.894531 C 147.65625 92.003906 147.386719 92.128906 147.128906 92.277344 C 146.78125 92.46875 146.445312 92.683594 146.132812 92.921875 C 146.121094 92.9375 146.105469 92.941406 146.09375 92.957031 C 145.980469 93.042969 145.875 93.132812 145.769531 93.226562 C 145.578125 93.390625 145.394531 93.570312 145.214844 93.761719 L 145.214844 93.765625 C 144.761719 95.398438 144.851562 97.085938 145.5 98.675781 C 146.265625 100.570312 147.722656 102.046875 149.605469 102.84375 C 151.484375 103.644531 153.570312 103.65625 155.464844 102.890625 C 156.515625 102.46875 157.433594 101.835938 158.191406 101.023438 C 158.257812 100.800781 158.308594 100.570312 158.351562 100.339844 C 158.371094 100.226562 158.390625 100.121094 158.402344 100.007812 C 158.582031 98.695312 158.414062 97.363281 157.90625 96.109375 Z M 136.695312 82.351562 L 130.308594 65.78125 C 130.273438 65.699219 130.273438 65.609375 130.3125 65.527344 C 130.347656 65.449219 130.414062 65.382812 130.5 65.359375 L 166.804688 51.363281 C 166.882812 51.332031 166.976562 51.335938 167.054688 51.371094 C 167.132812 51.410156 167.199219 51.476562 167.226562 51.554688 L 169.859375 58.382812 L 174.539062 56.582031 C 174.710938 56.515625 174.902344 56.597656 174.96875 56.765625 L 181.355469 73.339844 C 181.390625 73.425781 181.390625 73.511719 181.351562 73.589844 C 181.316406 73.675781 181.25 73.738281 181.164062 73.769531 L 144.859375 87.757812 C 144.820312 87.777344 144.78125 87.78125 144.742188 87.78125 C 144.609375 87.78125 144.484375 87.695312 144.4375 87.570312 L 141.804688 80.742188 L 137.125 82.542969 C 137.085938 82.558594 137.046875 82.5625 137.007812 82.5625 C 136.875 82.5625 136.75 82.484375 136.695312 82.351562 Z M 169.484375 59.234375 L 167.703125 59.921875 L 167.089844 60.160156 L 138.78125 71.066406 L 141.382812 77.820312 L 141.621094 78.433594 L 142.179688 79.886719 L 142.417969 80.503906 L 144.933594 87.023438 L 180.625 73.273438 L 174.472656 57.316406 L 170.097656 58.996094 Z M 131.039062 65.851562 L 137.191406 81.8125 L 141.566406 80.128906 L 141.003906 78.671875 L 139.535156 79.238281 C 139.492188 79.253906 139.453125 79.257812 139.414062 79.257812 C 139.367188 79.257812 139.324219 79.253906 139.28125 79.230469 C 139.203125 79.199219 139.136719 79.132812 139.105469 79.046875 L 134.3125 66.609375 C 134.28125 66.53125 134.28125 66.441406 134.320312 66.359375 C 134.351562 66.28125 134.417969 66.222656 134.496094 66.1875 L 138.40625 64.683594 C 138.570312 64.617188 138.761719 64.703125 138.828125 64.875 C 138.894531 65.039062 138.8125 65.230469 138.644531 65.296875 L 135.046875 66.683594 L 139.605469 78.507812 L 140.769531 78.058594 L 138.042969 71 C 138.015625 70.914062 138.015625 70.828125 138.046875 70.742188 C 138.089844 70.660156 138.152344 70.601562 138.234375 70.570312 L 166.851562 59.546875 L 165.132812 55.089844 L 161.1875 56.609375 C 161.023438 56.675781 160.832031 56.589844 160.765625 56.425781 C 160.699219 56.253906 160.785156 56.0625 160.949219 55.996094 L 165.199219 54.359375 C 165.371094 54.292969 165.5625 54.378906 165.628906 54.542969 L 167.464844 59.308594 L 169.246094 58.621094 L 166.730469 52.101562 Z M 150.886719 82.351562 L 147.339844 83.71875 L 145.625 79.265625 L 145.386719 78.652344 L 142.789062 71.902344 L 146.378906 70.515625 C 146.550781 70.449219 146.636719 70.257812 146.570312 70.089844 C 146.503906 69.917969 146.3125 69.832031 146.140625 69.898438 L 142.238281 71.402344 C 142.160156 71.433594 142.09375 71.492188 142.054688 71.578125 C 142.023438 71.660156 142.023438 71.742188 142.046875 71.828125 L 144.773438 78.890625 L 145.011719 79.503906 L 146.847656 84.265625 C 146.878906 84.34375 146.9375 84.410156 147.019531 84.449219 C 147.0625 84.464844 147.109375 84.476562 147.148438 84.476562 C 147.195312 84.476562 147.234375 84.472656 147.269531 84.449219 L 151.121094 82.972656 C 151.292969 82.90625 151.375 82.714844 151.308594 82.542969 C 151.25 82.371094 151.058594 82.285156 150.886719 82.351562 Z M 168.929688 61.828125 L 170.28125 61.308594 L 170.894531 61.070312 L 172.871094 60.304688 L 177.429688 72.125 L 173.707031 73.558594 C 173.542969 73.625 173.457031 73.816406 173.523438 73.988281 C 173.570312 74.121094 173.695312 74.199219 173.828125 74.199219 C 173.867188 74.199219 173.90625 74.191406 173.945312 74.179688 L 177.972656 72.621094 C 178.144531 72.554688 178.226562 72.363281 178.164062 72.199219 L 173.363281 59.761719 C 173.304688 59.589844 173.105469 59.503906 172.941406 59.570312 L 170.660156 60.449219 L 170.042969 60.6875 L 168.691406 61.207031 C 168.519531 61.273438 168.433594 61.464844 168.5 61.636719 C 168.566406 61.808594 168.757812 61.894531 168.929688 61.828125 Z M 162.558594 72.773438 C 162.773438 73.28125 162.726562 73.730469 162.410156 74.121094 C 162.09375 74.507812 161.695312 74.800781 161.214844 75.003906 L 161.320312 75.246094 C 161.359375 75.367188 161.359375 75.476562 161.3125 75.582031 C 161.273438 75.691406 161.214844 75.761719 161.128906 75.796875 C 160.929688 75.878906 160.765625 75.808594 160.625 75.578125 L 160.507812 75.292969 C 160.074219 75.347656 159.636719 75.328125 159.199219 75.226562 C 158.773438 75.121094 158.507812 74.949219 158.402344 74.707031 C 158.363281 74.609375 158.355469 74.507812 158.390625 74.417969 C 158.402344 74.382812 158.414062 74.355469 158.4375 74.332031 C 158.460938 74.285156 158.5 74.246094 158.5625 74.21875 C 158.605469 74.199219 158.671875 74.199219 158.757812 74.203125 C 158.824219 74.210938 158.902344 74.230469 158.996094 74.265625 C 159.003906 74.269531 159.089844 74.296875 159.234375 74.355469 C 159.714844 74.523438 160.058594 74.601562 160.269531 74.585938 C 160.191406 74.34375 160.085938 74.058594 159.964844 73.742188 C 159.921875 73.617188 159.867188 73.492188 159.816406 73.359375 C 159.78125 73.28125 159.75 73.203125 159.722656 73.128906 C 159.5625 72.742188 159.4375 72.382812 159.347656 72.054688 C 158.410156 72.09375 157.769531 71.996094 157.433594 71.765625 C 157.292969 71.660156 157.175781 71.488281 157.070312 71.242188 C 156.964844 70.992188 156.917969 70.6875 156.925781 70.339844 C 156.929688 69.984375 157.015625 69.640625 157.167969 69.316406 C 157.328125 68.992188 157.550781 68.722656 157.855469 68.519531 L 157.734375 68.226562 C 157.710938 68.121094 157.714844 68.03125 157.753906 67.9375 C 157.800781 67.851562 157.863281 67.792969 157.945312 67.757812 C 158.113281 67.6875 158.269531 67.738281 158.414062 67.910156 L 158.535156 68.195312 C 158.984375 68.042969 159.417969 68.011719 159.835938 68.089844 C 160.25 68.167969 160.582031 68.351562 160.824219 68.648438 C 160.878906 68.808594 160.863281 68.953125 160.773438 69.066406 C 160.738281 69.113281 160.6875 69.152344 160.621094 69.175781 C 160.476562 69.242188 160.335938 69.203125 160.203125 69.070312 C 159.964844 68.753906 159.542969 68.6875 158.945312 68.875 L 159.054688 69.144531 L 159.894531 71.289062 C 160.945312 71.234375 161.714844 71.53125 162.203125 72.171875 C 162.34375 72.339844 162.453125 72.527344 162.546875 72.746094 C 162.554688 72.753906 162.554688 72.765625 162.558594 72.773438 Z M 159.117188 71.328125 L 158.757812 70.484375 L 158.402344 69.554688 C 158.324219 69.367188 158.269531 69.257812 158.246094 69.203125 C 157.980469 69.402344 157.816406 69.679688 157.730469 70.035156 C 157.648438 70.390625 157.671875 70.707031 157.789062 70.992188 C 157.933594 71.277344 158.375 71.386719 159.117188 71.328125 Z M 161.886719 73.195312 C 161.859375 73.136719 161.839844 73.082031 161.808594 73.03125 C 161.695312 72.800781 161.570312 72.613281 161.417969 72.476562 L 161.417969 72.46875 C 161.359375 72.417969 161.292969 72.363281 161.226562 72.324219 C 160.964844 72.167969 160.59375 72.082031 160.113281 72.066406 C 160.171875 72.253906 160.269531 72.523438 160.402344 72.867188 C 160.421875 72.90625 160.433594 72.953125 160.457031 72.996094 C 160.515625 73.148438 160.582031 73.3125 160.640625 73.480469 C 160.753906 73.769531 160.871094 74.074219 161.003906 74.410156 C 161.769531 74.015625 162.066406 73.609375 161.886719 73.195312 Z M 212.152344 87.683594 C 212.152344 68.421875 227.828125 52.753906 247.09375 52.753906 C 266.359375 52.753906 282.035156 68.425781 282.035156 87.683594 C 282.035156 106.945312 266.359375 122.613281 247.09375 122.613281 C 227.828125 122.613281 212.152344 106.945312 212.152344 87.683594 Z M 212.8125 87.683594 C 212.8125 106.582031 228.191406 121.953125 247.09375 121.953125 C 265.996094 121.953125 281.375 106.582031 281.375 87.683594 C 281.375 68.789062 265.996094 53.414062 247.09375 53.414062 C 228.191406 53.414062 212.8125 68.789062 212.8125 87.683594 Z M 221.925781 105.332031 L 221.925781 88.179688 C 221.925781 87.996094 222.070312 87.847656 222.253906 87.847656 L 227.832031 87.847656 L 227.832031 70.035156 C 227.832031 69.851562 227.976562 69.707031 228.164062 69.707031 L 262.371094 69.707031 C 262.554688 69.707031 262.699219 69.851562 262.699219 70.035156 L 262.699219 86.742188 L 269.109375 80.316406 L 266.976562 78.191406 C 266.882812 78.089844 266.859375 77.953125 266.910156 77.828125 C 266.957031 77.703125 267.074219 77.621094 267.214844 77.621094 L 271.933594 77.621094 C 272.117188 77.621094 272.261719 77.773438 272.261719 77.953125 L 272.261719 82.675781 C 272.261719 82.808594 272.183594 82.925781 272.058594 82.980469 C 272.019531 82.992188 271.972656 83.007812 271.933594 83.007812 C 271.847656 83.007812 271.761719 82.972656 271.703125 82.90625 L 269.570312 80.785156 L 262.699219 87.675781 L 262.699219 104.230469 C 262.699219 104.414062 262.554688 104.5625 262.371094 104.5625 L 234.394531 104.5625 L 234.394531 105.332031 C 234.394531 105.519531 234.246094 105.664062 234.0625 105.664062 L 222.253906 105.664062 C 222.070312 105.664062 221.925781 105.519531 221.925781 105.332031 Z M 271.601562 81.878906 L 271.601562 78.28125 L 268.007812 78.28125 Z M 262.039062 88.335938 L 258.355469 92.03125 C 258.289062 92.097656 258.207031 92.136719 258.113281 92.132812 C 258.019531 92.125 257.933594 92.085938 257.875 92.019531 L 251.96875 85.214844 L 242.835938 95.507812 C 242.722656 95.632812 242.535156 95.652344 242.398438 95.5625 L 236.816406 91.734375 L 234.394531 94.289062 L 234.394531 103.902344 L 262.039062 103.902344 Z M 228.492188 87.847656 L 234.0625 87.847656 C 234.246094 87.847656 234.394531 87.996094 234.394531 88.179688 L 234.394531 93.332031 L 236.53125 91.082031 C 236.644531 90.964844 236.820312 90.945312 236.960938 91.035156 L 242.53125 94.855469 L 251.722656 84.496094 C 251.789062 84.425781 251.882812 84.390625 251.976562 84.386719 C 252.066406 84.386719 252.160156 84.425781 252.226562 84.496094 L 258.140625 91.3125 L 262.039062 87.402344 L 262.039062 70.367188 L 228.492188 70.367188 Z M 222.585938 91.472656 L 233.734375 91.472656 L 233.734375 88.507812 L 222.585938 88.507812 Z M 222.585938 96.425781 L 233.734375 96.425781 L 233.734375 92.132812 L 222.585938 92.132812 Z M 222.585938 101.382812 L 233.734375 101.382812 L 233.734375 97.085938 L 222.585938 97.085938 Z M 222.585938 105.003906 L 233.734375 105.003906 L 233.734375 102.039062 L 222.585938 102.039062 Z M 335.070312 124.605469 C 335.070312 139.003906 323.351562 150.722656 308.945312 150.722656 C 294.539062 150.722656 282.820312 139.003906 282.820312 124.605469 C 282.820312 110.207031 294.539062 98.488281 308.945312 98.492188 C 323.351562 98.492188 335.070312 110.207031 335.070312 124.605469 Z M 334.410156 124.605469 C 334.410156 110.570312 322.984375 99.148438 308.945312 99.148438 C 294.902344 99.148438 283.480469 110.570312 283.480469 124.605469 C 283.480469 138.640625 294.902344 150.0625 308.945312 150.0625 C 322.984375 150.0625 334.410156 138.640625 334.410156 124.605469 Z M 321.226562 124.5 L 321.226562 141.21875 C 321.226562 141.402344 321.074219 141.546875 320.898438 141.546875 L 297.679688 141.546875 C 297.5 141.546875 297.347656 141.402344 297.347656 141.21875 L 297.347656 135.894531 L 296.054688 135.894531 C 295.875 135.894531 295.726562 135.742188 295.726562 135.5625 L 295.726562 130.160156 C 295.726562 129.976562 295.875 129.832031 296.054688 129.832031 L 297.347656 129.832031 L 297.347656 124.5 C 297.347656 124.320312 297.5 124.167969 297.679688 124.167969 L 320.898438 124.167969 C 321.074219 124.167969 321.226562 124.320312 321.226562 124.5 Z M 298.007812 135.234375 L 305.929688 135.234375 L 305.929688 130.488281 L 296.386719 130.488281 L 296.386719 135.234375 Z M 320.566406 124.828125 L 298.007812 124.828125 L 298.007812 129.832031 L 306.257812 129.832031 C 306.441406 129.832031 306.589844 129.976562 306.589844 130.160156 L 306.589844 135.5625 C 306.589844 135.742188 306.441406 135.894531 306.257812 135.894531 L 298.007812 135.894531 L 298.007812 140.886719 L 320.566406 140.886719 Z M 321.8125 111.96875 C 321.8125 116.351562 318.25 119.90625 313.875 119.90625 C 309.492188 119.90625 305.929688 116.351562 305.929688 111.96875 C 305.929688 107.589844 309.492188 104.035156 313.875 104.035156 C 318.25 104.035156 321.8125 107.589844 321.8125 111.96875 Z M 321.152344 111.96875 C 321.152344 107.960938 317.886719 104.691406 313.875 104.691406 C 309.855469 104.691406 306.589844 107.960938 306.589844 111.96875 C 306.589844 115.980469 309.855469 119.246094 313.875 119.246094 C 317.886719 119.246094 321.152344 115.980469 321.152344 111.96875 Z M 313.941406 109.132812 L 313.886719 111.054688 C 314.929688 111.441406 315.457031 112.117188 315.457031 113.066406 C 315.457031 113.527344 315.273438 113.855469 314.902344 114.054688 C 314.535156 114.253906 314.132812 114.351562 313.691406 114.351562 L 313.691406 114.570312 C 313.683594 114.675781 313.648438 114.761719 313.585938 114.832031 C 313.511719 114.898438 313.445312 114.933594 313.367188 114.933594 C 313.1875 114.933594 313.082031 114.820312 313.054688 114.601562 L 313.054688 114.339844 C 312.699219 114.246094 312.371094 114.082031 312.074219 113.863281 C 311.769531 113.644531 311.625 113.429688 311.625 113.203125 C 311.625 113.113281 311.652344 113.039062 311.703125 112.972656 C 311.761719 112.914062 311.828125 112.878906 311.902344 112.878906 C 311.980469 112.878906 312.085938 112.941406 312.222656 113.058594 C 312.230469 113.066406 312.285156 113.113281 312.382812 113.203125 C 312.691406 113.488281 312.9375 113.660156 313.101562 113.726562 C 313.121094 113.429688 313.140625 113.066406 313.148438 112.628906 C 313.15625 112.195312 313.175781 111.804688 313.214844 111.46875 C 312.476562 111.191406 312.019531 110.90625 311.835938 110.617188 C 311.761719 110.5 311.722656 110.320312 311.722656 110.097656 C 311.722656 109.871094 311.789062 109.628906 311.90625 109.351562 C 312.035156 109.082031 312.203125 108.851562 312.429688 108.644531 C 312.652344 108.445312 312.917969 108.316406 313.222656 108.257812 L 313.222656 108 C 313.234375 107.90625 313.265625 107.832031 313.332031 107.78125 C 313.394531 107.726562 313.457031 107.703125 313.539062 107.703125 C 313.691406 107.703125 313.796875 107.789062 313.847656 107.964844 L 313.847656 108.230469 C 314.246094 108.257812 314.585938 108.375 314.882812 108.566406 C 315.179688 108.765625 315.371094 109.019531 315.464844 109.324219 C 315.453125 109.46875 315.390625 109.570312 315.292969 109.628906 C 315.246094 109.65625 315.195312 109.667969 315.136719 109.667969 C 315.003906 109.667969 314.910156 109.59375 314.84375 109.445312 C 314.765625 109.125 314.460938 108.933594 313.941406 108.882812 Z M 313.308594 109.230469 C 313.308594 109.066406 313.300781 108.960938 313.292969 108.910156 C 313.03125 108.980469 312.804688 109.140625 312.628906 109.382812 C 312.449219 109.636719 312.363281 109.886719 312.363281 110.136719 C 312.382812 110.414062 312.6875 110.644531 313.273438 110.828125 L 313.273438 110.0625 Z M 313.800781 111.726562 C 313.78125 111.910156 313.769531 112.1875 313.761719 112.558594 C 313.75 112.925781 313.734375 113.347656 313.722656 113.824219 C 314.441406 113.773438 314.796875 113.554688 314.796875 113.171875 C 314.796875 112.796875 314.726562 112.5 314.574219 112.292969 C 314.421875 112.082031 314.164062 111.890625 313.800781 111.726562 Z M 293.328125 130.246094 C 293.367188 130.371094 293.328125 130.507812 293.230469 130.59375 L 291.613281 132.007812 C 291.554688 132.066406 291.476562 132.09375 291.394531 132.09375 C 291.304688 132.09375 291.210938 132.054688 291.144531 131.980469 L 289.730469 130.363281 C 289.648438 130.257812 289.625 130.121094 289.6875 130 C 289.746094 129.875 289.878906 129.808594 290.003906 129.816406 L 291.230469 129.902344 C 291.921875 122.804688 295.824219 117.683594 302.273438 115.46875 C 302.445312 115.40625 302.636719 115.5 302.695312 115.671875 C 302.753906 115.84375 302.660156 116.035156 302.488281 116.09375 C 296.304688 118.21875 292.5625 123.125 291.898438 129.941406 L 293.039062 130.019531 C 293.171875 130.027344 293.28125 130.121094 293.328125 130.246094 Z M 292.195312 130.628906 L 291.816406 130.601562 L 291.203125 130.5625 L 290.753906 130.53125 L 291.429688 131.292969 Z M 294.328125 82.671875 L 299.839844 82.671875 L 299.839844 88.179688 C 299.839844 88.363281 299.988281 88.507812 300.171875 88.507812 C 300.351562 88.507812 300.5 88.363281 300.5 88.179688 L 300.5 82.671875 L 306.011719 82.671875 C 306.195312 82.671875 306.339844 82.523438 306.339844 82.339844 C 306.339844 82.15625 306.195312 82.011719 306.011719 82.011719 L 300.5 82.011719 L 300.5 76.5 C 300.5 76.320312 300.351562 76.171875 300.171875 76.171875 C 299.988281 76.171875 299.839844 76.320312 299.839844 76.5 L 299.839844 82.011719 L 294.328125 82.011719 C 294.148438 82.011719 294 82.15625 294 82.339844 C 294 82.523438 294.148438 82.671875 294.328125 82.671875 Z M 113.488281 135.890625 L 119 135.890625 L 119 141.398438 C 119 141.582031 119.148438 141.730469 119.328125 141.730469 C 119.511719 141.730469 119.660156 141.582031 119.660156 141.398438 L 119.660156 135.890625 L 125.171875 135.890625 C 125.351562 135.890625 125.5 135.742188 125.5 135.558594 C 125.5 135.378906 125.351562 135.230469 125.171875 135.230469 L 119.660156 135.230469 L 119.660156 129.722656 C 119.660156 129.539062 119.511719 129.390625 119.328125 129.390625 C 119.148438 129.390625 119 129.539062 119 129.722656 L 119 135.230469 L 113.488281 135.230469 C 113.304688 135.230469 113.160156 135.378906 113.160156 135.558594 C 113.160156 135.742188 113.304688 135.890625 113.488281 135.890625 Z M 104.003906 68.058594 L 106.3125 68.058594 L 106.3125 70.367188 C 106.3125 70.550781 106.460938 70.699219 106.644531 70.699219 C 106.828125 70.699219 106.972656 70.550781 106.972656 70.367188 L 106.972656 68.058594 L 109.285156 68.058594 C 109.46875 68.058594 109.617188 67.910156 109.617188 67.726562 C 109.617188 67.546875 109.46875 67.398438 109.285156 67.398438 L 106.972656 67.398438 L 106.972656 65.085938 C 106.972656 64.902344 106.828125 64.757812 106.644531 64.757812 C 106.460938 64.757812 106.3125 64.902344 106.3125 65.085938 L 106.3125 67.398438 L 104.003906 67.398438 C 103.820312 67.398438 103.671875 67.546875 103.671875 67.726562 C 103.671875 67.910156 103.820312 68.058594 104.003906 68.058594 Z M 206.628906 52.609375 L 208.941406 52.609375 L 208.941406 54.921875 C 208.941406 55.105469 209.085938 55.25 209.269531 55.25 C 209.453125 55.25 209.601562 55.105469 209.601562 54.921875 L 209.601562 52.609375 L 211.910156 52.609375 C 212.09375 52.609375 212.242188 52.460938 212.242188 52.28125 C 212.242188 52.097656 212.09375 51.949219 211.910156 51.949219 L 209.601562 51.949219 L 209.601562 49.640625 C 209.601562 49.457031 209.453125 49.308594 209.269531 49.308594 C 209.085938 49.308594 208.941406 49.457031 208.941406 49.640625 L 208.941406 51.949219 L 206.628906 51.949219 C 206.445312 51.949219 206.296875 52.097656 206.296875 52.28125 C 206.296875 52.460938 206.445312 52.609375 206.628906 52.609375 Z M 49.308594 61.988281 L 51.621094 61.988281 L 51.621094 64.300781 C 51.621094 64.480469 51.765625 64.628906 51.949219 64.628906 C 52.132812 64.628906 52.28125 64.480469 52.28125 64.300781 L 52.28125 61.988281 L 54.589844 61.988281 C 54.773438 61.988281 54.921875 61.839844 54.921875 61.660156 C 54.921875 61.476562 54.773438 61.328125 54.589844 61.328125 L 52.28125 61.328125 L 52.28125 59.019531 C 52.28125 58.835938 52.132812 58.6875 51.949219 58.6875 C 51.765625 58.6875 51.621094 58.835938 51.621094 59.019531 L 51.621094 61.328125 L 49.308594 61.328125 C 49.125 61.328125 48.976562 61.476562 48.976562 61.660156 C 48.976562 61.839844 49.125 61.988281 49.308594 61.988281 Z M 46.707031 128.070312 C 46.890625 128.070312 47.035156 127.921875 47.035156 127.738281 C 47.035156 127.558594 46.890625 127.410156 46.707031 127.410156 L 43.734375 127.410156 L 43.734375 124.4375 C 43.734375 124.257812 43.585938 124.109375 43.40625 124.109375 C 43.222656 124.109375 43.074219 124.257812 43.074219 124.4375 L 43.074219 127.410156 L 40.101562 127.410156 C 39.917969 127.410156 39.773438 127.558594 39.773438 127.738281 C 39.773438 127.921875 39.917969 128.070312 40.101562 128.070312 L 43.074219 128.070312 L 43.074219 131.042969 C 43.074219 131.222656 43.222656 131.371094 43.40625 131.371094 C 43.585938 131.371094 43.734375 131.222656 43.734375 131.042969 L 43.734375 128.070312 Z M 317.589844 59.347656 L 320.5625 59.347656 L 320.5625 62.320312 C 320.5625 62.503906 320.710938 62.648438 320.894531 62.648438 C 321.078125 62.648438 321.222656 62.503906 321.222656 62.320312 L 321.222656 59.347656 L 324.195312 59.347656 C 324.378906 59.347656 324.527344 59.203125 324.527344 59.019531 C 324.527344 58.835938 324.378906 58.6875 324.195312 58.6875 L 321.222656 58.6875 L 321.222656 55.71875 C 321.222656 55.535156 321.078125 55.386719 320.894531 55.386719 C 320.710938 55.386719 320.5625 55.535156 320.5625 55.71875 L 320.5625 58.6875 L 317.589844 58.6875 C 317.410156 58.6875 317.261719 58.835938 317.261719 59.019531 C 317.261719 59.199219 317.410156 59.347656 317.589844 59.347656 Z M 317.175781 166.007812 L 314.203125 166.007812 L 314.203125 163.035156 C 314.203125 162.851562 314.054688 162.707031 313.871094 162.707031 C 313.691406 162.707031 313.542969 162.851562 313.542969 163.035156 L 313.542969 166.007812 L 310.570312 166.007812 C 310.386719 166.007812 310.238281 166.152344 310.238281 166.335938 C 310.238281 166.519531 310.386719 166.667969 310.570312 166.667969 L 313.542969 166.667969 L 313.542969 169.636719 C 313.542969 169.820312 313.691406 169.96875 313.871094 169.96875 C 314.054688 169.96875 314.203125 169.820312 314.203125 169.636719 L 314.203125 166.667969 L 317.175781 166.667969 C 317.355469 166.667969 317.503906 166.519531 317.503906 166.335938 C 317.503906 166.152344 317.355469 166.007812 317.175781 166.007812 Z M 317.175781 166.007812 " fill-opacity="1" fill-rule="nonzero"/></g><path fill="#e6e6e6" d="M 199.402344 173.0625 L 203.855469 181.34375 L 198.1875 177.089844 C 197.988281 176.945312 197.722656 176.921875 197.507812 177.035156 L 194.015625 178.890625 C 193.960938 178.917969 193.894531 178.902344 193.863281 178.851562 C 192.042969 176.757812 190.542969 174.402344 189.433594 171.746094 L 194.925781 167.335938 L 197.050781 170.035156 L 199.269531 172.851562 C 199.316406 172.917969 199.359375 172.992188 199.402344 173.0625 Z M 218.164062 158.105469 L 218.15625 158.101562 L 209.972656 167.910156 L 206.496094 172.082031 C 206.355469 172.238281 206.265625 172.425781 206.203125 172.628906 L 203.855469 181.34375 L 209.042969 176.566406 C 209.179688 176.429688 209.386719 176.371094 209.578125 176.402344 L 216.757812 177.625 C 216.804688 177.628906 216.84375 177.617188 216.871094 177.582031 C 221.074219 174.191406 224.566406 170.570312 226.175781 166.335938 Z M 151.78125 180.96875 L 148.726562 180.855469 L 136.980469 180.441406 L 136.4375 180.421875 L 133.476562 180.316406 C 133.390625 180.316406 133.316406 180.386719 133.316406 180.472656 L 133.316406 188.210938 C 133.316406 188.304688 133.382812 188.371094 133.46875 188.371094 L 153.234375 188.371094 C 153.332031 188.371094 153.40625 188.277344 153.386719 188.1875 L 151.933594 181.09375 C 151.921875 181.027344 151.855469 180.972656 151.78125 180.96875 Z M 283.878906 177.699219 C 283.867188 177.640625 283.808594 177.597656 283.746094 177.605469 L 280.800781 178.007812 L 268.625 179.675781 L 267.457031 179.832031 L 264.667969 180.214844 C 264.609375 180.222656 264.566406 180.273438 264.566406 180.332031 L 264.566406 187.828125 C 264.566406 187.898438 264.628906 187.953125 264.699219 187.945312 L 266.605469 187.710938 L 266.625 187.710938 L 266.726562 187.699219 L 282.820312 185.710938 L 285.101562 185.429688 C 285.167969 185.421875 285.214844 185.359375 285.203125 185.292969 Z M 224.042969 235.007812 L 254.210938 235.007812 L 254.210938 225.886719 L 224.042969 225.886719 Z M 72.273438 243.636719 L 85.671875 243.640625 L 87.171875 223.765625 L 70.777344 223.765625 Z M 167.039062 270.492188 C 166.457031 270.742188 165.855469 270.96875 165.265625 271.277344 C 164.679688 271.578125 164.128906 271.945312 163.617188 272.355469 C 162.585938 273.179688 161.738281 274.21875 161.113281 275.378906 L 157.796875 282.285156 C 157.25 283.441406 156.6875 284.5625 156.171875 285.761719 C 155.6875 286.976562 155.449219 288.285156 155.46875 289.585938 C 155.496094 293.15625 155.542969 296.730469 155.601562 300.300781 L 155.597656 300.3125 C 155.613281 301.4375 155.632812 302.566406 155.65625 303.695312 C 155.664062 304.085938 155.667969 304.480469 155.675781 304.875 C 155.675781 304.863281 155.675781 304.847656 155.675781 304.835938 C 155.675781 304.847656 155.675781 304.859375 155.675781 304.871094 L 155.675781 304.800781 C 155.769531 299.726562 155.84375 294.65625 155.882812 289.585938 C 155.894531 288.335938 156.15625 287.097656 156.644531 285.953125 C 157.171875 284.828125 157.765625 283.675781 158.316406 282.535156 L 161.675781 275.683594 C 162.269531 274.601562 163.074219 273.644531 164.023438 272.859375 C 164.5 272.46875 165.015625 272.125 165.558594 271.835938 C 166.097656 271.546875 166.691406 271.316406 167.277344 271.0625 L 174.304688 268.046875 C 178.976562 266.003906 183.648438 263.964844 188.285156 261.839844 C 183.535156 263.691406 178.816406 265.621094 174.09375 267.550781 Z M 167.039062 270.492188 " fill-opacity="1" fill-rule="nonzero"/><g clip-path="url(#e66b84f3c4)"><path fill="#321a2a" d="M 201.613281 143.164062 C 201.265625 143.210938 200.925781 143.273438 200.566406 143.34375 L 199.410156 143.601562 C 199.582031 143.191406 199.898438 142.871094 200.257812 142.636719 C 200.621094 142.394531 201.042969 142.246094 201.476562 142.183594 C 202.335938 142.066406 203.269531 142.300781 203.855469 142.964844 C 203.414062 143.007812 203.035156 143.023438 202.667969 143.050781 C 202.304688 143.082031 201.957031 143.113281 201.613281 143.164062 Z M 185.894531 146.484375 C 186.195312 146.398438 186.507812 146.308594 186.867188 146.15625 C 186.570312 145.902344 186.222656 145.769531 185.863281 145.714844 C 185.507812 145.648438 185.136719 145.671875 184.78125 145.761719 C 184.425781 145.855469 184.082031 146.023438 183.796875 146.273438 C 183.515625 146.515625 183.28125 146.839844 183.222656 147.226562 L 184.179688 146.941406 L 185.027344 146.722656 C 185.3125 146.648438 185.597656 146.574219 185.894531 146.484375 Z M 191.078125 158.902344 C 190.789062 159.074219 190.519531 159.269531 190.269531 159.507812 C 190.019531 159.738281 189.789062 160.003906 189.605469 160.347656 C 189.996094 160.355469 190.335938 160.277344 190.664062 160.171875 C 190.988281 160.066406 191.292969 159.921875 191.582031 159.753906 C 191.867188 159.585938 192.140625 159.390625 192.386719 159.152344 C 192.636719 158.921875 192.871094 158.65625 193.054688 158.3125 C 192.660156 158.304688 192.320312 158.378906 191.996094 158.488281 C 191.667969 158.589844 191.363281 158.734375 191.078125 158.902344 Z M 200.066406 157.917969 C 200.460938 157.851562 200.855469 157.75 201.25 157.550781 C 200.859375 157.335938 200.46875 157.222656 200.078125 157.144531 C 199.6875 157.058594 199.292969 157.023438 198.898438 157.019531 C 198.507812 157.011719 198.113281 157.035156 197.71875 157.109375 C 197.324219 157.175781 196.929688 157.277344 196.535156 157.476562 C 196.921875 157.6875 197.316406 157.800781 197.707031 157.878906 C 198.097656 157.964844 198.492188 158 198.882812 158.007812 C 199.277344 158.011719 199.671875 157.988281 200.066406 157.917969 Z M 192.550781 159.917969 L 197.761719 158.65625 C 197.890625 158.625 198.019531 158.652344 198.125 158.730469 C 198.226562 158.808594 198.289062 158.929688 198.292969 159.058594 C 198.34375 161.046875 197.179688 162.066406 196.070312 162.359375 C 195.824219 162.425781 195.5625 162.460938 195.292969 162.460938 C 194.210938 162.460938 193.007812 161.90625 192.273438 160.539062 C 192.210938 160.421875 192.207031 160.28125 192.261719 160.160156 C 192.316406 160.039062 192.421875 159.949219 192.550781 159.917969 Z M 193.34375 160.609375 C 194.054688 161.511719 195.070312 161.738281 195.851562 161.53125 C 196.539062 161.347656 197.257812 160.753906 197.410156 159.625 Z M 266.316406 161.0625 C 266.484375 160.945312 266.625 160.910156 266.792969 160.910156 C 266.960938 160.917969 267.085938 160.960938 267.253906 161.066406 C 267.457031 161.183594 267.667969 161.292969 267.890625 161.386719 C 268.332031 161.578125 268.808594 161.695312 269.292969 161.738281 C 269.777344 161.78125 270.273438 161.757812 270.75 161.652344 C 270.988281 161.601562 271.222656 161.53125 271.449219 161.449219 C 271.585938 161.40625 271.820312 161.273438 271.929688 161.101562 C 272.042969 160.945312 272.105469 160.761719 272.117188 160.574219 C 272.785156 160.382812 273.375 160.070312 273.9375 159.710938 C 274.59375 159.257812 275.21875 158.757812 275.707031 158.035156 C 274.84375 158.152344 274.113281 158.484375 273.417969 158.867188 C 272.898438 159.175781 272.394531 159.515625 271.957031 159.957031 C 271.949219 159.945312 271.945312 159.925781 271.933594 159.914062 C 271.882812 159.835938 271.773438 159.734375 271.734375 159.707031 L 271.609375 159.597656 L 271.089844 159.175781 L 270.148438 158.40625 C 270.734375 158.042969 271.226562 157.585938 271.683594 157.101562 C 272.246094 156.46875 272.761719 155.796875 273.089844 154.941406 C 272.246094 155.296875 271.585938 155.832031 270.972656 156.410156 C 270.492188 156.898438 270.039062 157.417969 269.691406 158.035156 L 269.015625 157.492188 L 268.492188 157.078125 C 268.335938 156.945312 268.078125 156.757812 267.84375 156.652344 C 267.789062 156.625 267.726562 156.609375 267.667969 156.585938 C 268.117188 156.183594 268.484375 155.722656 268.824219 155.238281 C 269.261719 154.574219 269.65625 153.875 269.855469 153.03125 C 269.105469 153.460938 268.542969 154.035156 268.03125 154.644531 C 267.601562 155.1875 267.21875 155.757812 266.953125 156.417969 C 266.859375 156.410156 266.765625 156.402344 266.671875 156.402344 L 266.335938 156.410156 L 265 156.445312 L 263.773438 156.496094 C 264.363281 155.90625 264.839844 155.242188 265.277344 154.554688 C 265.535156 154.113281 265.785156 153.671875 265.996094 153.199219 C 266.207031 152.730469 266.394531 152.246094 266.511719 151.71875 C 266.078125 152.042969 265.714844 152.414062 265.375 152.800781 C 265.035156 153.1875 264.734375 153.597656 264.441406 154.019531 C 263.933594 154.792969 263.476562 155.605469 263.183594 156.519531 C 263.117188 156.523438 263.046875 156.527344 262.964844 156.539062 C 262.695312 156.578125 262.4375 156.679688 262.21875 156.832031 C 262.003906 156.972656 261.804688 157.195312 261.695312 157.390625 C 261.578125 157.578125 261.46875 157.777344 261.355469 157.972656 C 261.136719 158.359375 260.90625 158.746094 260.699219 159.148438 C 261.027344 158.835938 261.332031 158.507812 261.640625 158.179688 C 261.792969 158.015625 261.953125 157.859375 262.097656 157.691406 C 262.242188 157.519531 262.359375 157.414062 262.523438 157.324219 C 262.683594 157.238281 262.859375 157.195312 263.03125 157.1875 C 263.1875 157.183594 263.457031 157.203125 263.664062 157.207031 L 265 157.261719 L 266.335938 157.296875 L 266.671875 157.304688 C 266.761719 157.308594 266.847656 157.316406 266.933594 157.335938 C 267.109375 157.367188 267.277344 157.417969 267.433594 157.5 C 267.605469 157.585938 267.707031 157.664062 267.890625 157.820312 L 268.402344 158.246094 L 269.433594 159.097656 L 270.472656 159.9375 L 270.992188 160.355469 L 271.160156 160.488281 C 271.167969 160.492188 271.171875 160.5 271.175781 160.515625 C 271.179688 160.527344 271.171875 160.539062 271.171875 160.546875 C 271.15625 160.5625 271.191406 160.550781 271.117188 160.582031 C 270.929688 160.65625 270.738281 160.722656 270.542969 160.769531 C 270.152344 160.867188 269.75 160.925781 269.34375 160.914062 C 268.941406 160.902344 268.539062 160.828125 268.144531 160.707031 C 267.949219 160.644531 267.757812 160.566406 267.570312 160.476562 C 267.351562 160.363281 267.03125 160.273438 266.753906 160.316406 C 266.472656 160.34375 266.183594 160.492188 266.011719 160.660156 L 265.503906 161.097656 C 265.164062 161.386719 264.835938 161.6875 264.503906 161.988281 C 264.46875 162.023438 264.460938 162.078125 264.488281 162.121094 C 264.515625 162.171875 264.582031 162.1875 264.632812 162.15625 C 265.011719 161.921875 265.390625 161.683594 265.757812 161.433594 Z M 179.628906 250.671875 L 138.839844 268.140625 C 136.6875 269.058594 134.875 270.617188 133.640625 272.601562 L 128.558594 280.765625 C 128.109375 281.488281 127.738281 282.261719 127.460938 283.066406 L 110.492188 332.140625 L 144.8125 332.140625 L 153.925781 305.234375 L 155.597656 300.3125 C 155.539062 296.738281 155.496094 293.160156 155.472656 289.585938 C 155.453125 288.285156 155.6875 286.980469 156.171875 285.757812 C 156.6875 284.5625 157.246094 283.441406 157.792969 282.28125 L 161.113281 275.378906 C 161.734375 274.21875 162.585938 273.183594 163.617188 272.359375 C 164.128906 271.941406 164.679688 271.578125 165.265625 271.277344 C 165.851562 270.964844 166.453125 270.742188 167.035156 270.492188 L 174.097656 267.546875 C 178.816406 265.621094 183.535156 263.6875 188.285156 261.84375 C 183.644531 263.964844 178.980469 266.003906 174.308594 268.042969 L 167.277344 271.058594 C 166.691406 271.316406 166.097656 271.546875 165.5625 271.835938 C 165.015625 272.121094 164.5 272.46875 164.023438 272.859375 C 163.074219 273.644531 162.269531 274.601562 161.675781 275.683594 L 158.316406 282.53125 C 157.769531 283.679688 157.175781 284.828125 156.644531 285.957031 C 156.15625 287.097656 155.894531 288.335938 155.878906 289.585938 C 155.839844 294.679688 155.769531 299.777344 155.675781 304.871094 L 155.675781 332.140625 L 188.53125 332.140625 L 188.53125 296.71875 C 188.53125 295.523438 189.34375 294.488281 190.503906 294.203125 C 191.125 294.097656 191.746094 293.992188 192.359375 293.878906 C 210.25 290.773438 226.328125 287.183594 238.34375 282.519531 C 240.492188 272.007812 241.152344 260.621094 238.445312 250.671875 Z M 218.402344 243.640625 L 257.988281 243.640625 L 257.988281 235.007812 L 218.402344 235.007812 Z M 187.078125 240.902344 L 171.953125 240.902344 L 165.082031 219.964844 L 158.957031 201.308594 C 158.878906 201.0625 158.644531 200.898438 158.390625 200.898438 L 94.601562 200.898438 C 94.199219 200.898438 93.910156 201.296875 94.035156 201.679688 L 107.808594 243.640625 L 187.078125 243.640625 Z M 86.734375 214.601562 L 71.207031 214.601562 L 71.207031 218.917969 L 67 218.917969 L 67 223.765625 L 90.945312 223.765625 L 90.945312 218.917969 L 86.734375 218.917969 Z M 146.339844 164.242188 C 145.585938 163.535156 144.75 162.964844 143.882812 162.4375 C 142.871094 161.859375 141.832031 161.324219 140.65625 161.003906 C 141.460938 161.917969 142.394531 162.625 143.359375 163.277344 C 144.195312 163.820312 145.0625 164.3125 146.011719 164.679688 L 145.835938 164.910156 C 145.625 165.199219 145.464844 165.445312 145.246094 165.652344 C 145.03125 165.863281 144.785156 166.046875 144.519531 166.199219 C 144.265625 166.347656 143.925781 166.464844 143.617188 166.613281 L 142.679688 167.042969 C 142.058594 167.339844 141.433594 167.636719 140.828125 167.976562 C 141.511719 167.84375 142.175781 167.671875 142.84375 167.5 L 143.839844 167.222656 C 144.171875 167.125 144.492188 167.046875 144.859375 166.894531 C 145.207031 166.75 145.539062 166.546875 145.832031 166.292969 C 146.128906 166.046875 146.371094 165.730469 146.578125 165.480469 L 147.335938 164.53125 C 147.371094 164.792969 147.445312 165.042969 147.535156 165.285156 C 147.640625 165.535156 147.757812 165.785156 147.925781 166.011719 C 148.085938 166.246094 148.273438 166.464844 148.546875 166.65625 C 148.636719 166.335938 148.644531 166.046875 148.625 165.765625 C 148.605469 165.480469 148.542969 165.21875 148.46875 164.953125 C 148.375 164.699219 148.277344 164.445312 148.128906 164.210938 C 148.054688 164.085938 147.96875 163.964844 147.871094 163.851562 C 148.699219 162.765625 149.515625 161.675781 150.289062 160.546875 C 151.070312 159.417969 151.824219 158.265625 152.503906 157.054688 C 151.9375 157.597656 151.398438 158.164062 150.871094 158.738281 C 150.339844 158.050781 149.699219 157.511719 149.019531 157.023438 C 148.253906 156.507812 147.457031 156.035156 146.503906 155.769531 C 147.03125 156.605469 147.714844 157.234375 148.429688 157.816406 C 149.082031 158.320312 149.769531 158.769531 150.566406 159.082031 C 150.269531 159.414062 149.96875 159.742188 149.679688 160.078125 C 149.355469 160.449219 149.039062 160.835938 148.726562 161.214844 C 148.457031 160.929688 148.179688 160.664062 147.882812 160.425781 C 147.476562 160.089844 147.046875 159.796875 146.609375 159.511719 C 145.714844 158.96875 144.789062 158.472656 143.71875 158.199219 C 144.394531 159.074219 145.210938 159.730469 146.0625 160.335938 C 146.496094 160.628906 146.9375 160.910156 147.40625 161.148438 C 147.726562 161.316406 148.0625 161.464844 148.410156 161.59375 C 147.960938 162.144531 147.515625 162.703125 147.074219 163.265625 Z M 200.816406 148.277344 C 201.171875 148.007812 201.523438 147.796875 201.90625 147.679688 C 202.285156 147.558594 202.6875 147.515625 203.125 147.535156 C 203.5625 147.5625 204.023438 147.664062 204.546875 147.773438 C 204.257812 147.328125 203.820312 146.976562 203.296875 146.78125 C 202.777344 146.578125 202.15625 146.554688 201.597656 146.738281 C 201.035156 146.921875 200.558594 147.300781 200.25 147.761719 C 199.933594 148.21875 199.761719 148.746094 199.773438 149.277344 C 200.144531 148.894531 200.46875 148.554688 200.816406 148.277344 Z M 185.359375 151.148438 C 185.679688 151.078125 186.011719 151.058594 186.378906 151.0625 C 186.746094 151.070312 187.132812 151.117188 187.589844 151.140625 C 187.097656 150.398438 186.117188 149.988281 185.160156 150.179688 C 184.199219 150.378906 183.457031 151.164062 183.332031 152.046875 C 183.734375 151.832031 184.066406 151.632812 184.394531 151.476562 C 184.726562 151.324219 185.035156 151.214844 185.359375 151.148438 Z M 181.625 157.28125 C 180.289062 154.648438 179.472656 152.285156 179.136719 150.054688 C 179.097656 149.800781 179.261719 149.558594 179.515625 149.5 L 189.734375 147.117188 C 189.78125 146.859375 189.824219 146.601562 189.871094 146.34375 C 189.894531 146.226562 190.007812 146.152344 190.125 146.175781 C 190.226562 146.195312 190.300781 146.28125 190.300781 146.378906 C 190.335938 147.535156 190.308594 148.683594 190.265625 149.832031 L 196.132812 148.582031 C 195.925781 147.757812 195.742188 146.914062 195.605469 146.039062 C 195.5625 145.78125 195.726562 145.539062 195.976562 145.480469 L 208.285156 142.480469 L 210.757812 141.9375 L 205.617188 131.222656 C 197.988281 133.730469 189.785156 135.121094 181.277344 135.953125 C 177.890625 131.546875 179.5625 124.875 185.132812 123.726562 C 185.335938 123.6875 185.507812 123.550781 185.59375 123.363281 C 186.773438 120.929688 189.613281 119.558594 192.226562 120.769531 C 192.484375 120.890625 192.773438 120.835938 192.972656 120.632812 C 194.925781 118.59375 197.84375 118.304688 200.027344 119.945312 C 200.230469 120.105469 200.503906 120.132812 200.734375 120.019531 C 203.691406 118.566406 206.878906 119.433594 208.460938 122.347656 C 208.582031 122.566406 208.8125 122.703125 209.070312 122.699219 C 216.652344 122.527344 221.035156 133.207031 218.375 147.035156 C 218.769531 142.40625 214.203125 138.683594 211.199219 142.859375 L 209.03125 143.304688 C 209.691406 145.632812 209.910156 148.089844 209.664062 150.617188 C 209.648438 150.785156 209.550781 150.929688 209.402344 151.007812 C 205.9375 152.816406 202.269531 153.800781 198.488281 153.933594 C 198.226562 154.628906 197.835938 155.28125 197.304688 155.832031 C 196.675781 156.476562 195.878906 156.976562 195.015625 157.289062 C 194.152344 157.605469 193.207031 157.714844 192.300781 157.601562 C 191.84375 157.550781 191.394531 157.460938 190.964844 157.316406 C 190.761719 157.257812 190.503906 157.160156 190.273438 157.023438 C 190.042969 156.890625 189.835938 156.722656 189.65625 156.53125 C 189.484375 156.351562 189.339844 156.152344 189.222656 155.9375 C 187.027344 157.003906 184.671875 157.550781 182.207031 157.550781 C 182.15625 157.550781 182.109375 157.550781 182.0625 157.550781 C 181.875 157.546875 181.707031 157.445312 181.625 157.28125 Z M 196.65625 146.332031 C 197.078125 148.757812 197.769531 150.976562 198.707031 152.9375 C 202.160156 152.777344 205.523438 151.875 208.703125 150.253906 C 208.898438 147.9375 208.6875 145.683594 208.078125 143.550781 Z M 190.015625 154.429688 C 190.015625 154.585938 190.035156 154.742188 190.074219 154.890625 C 190.15625 155.191406 190.3125 155.472656 190.53125 155.679688 C 190.636719 155.785156 190.757812 155.875 190.890625 155.945312 C 191.019531 156.015625 191.152344 156.058594 191.347656 156.117188 C 191.703125 156.238281 192.070312 156.3125 192.4375 156.355469 C 193.175781 156.441406 193.921875 156.371094 194.621094 156.140625 C 195.933594 155.710938 196.960938 154.738281 197.9375 153.613281 C 197.316406 152.355469 196.804688 150.988281 196.390625 149.539062 L 190.222656 150.851562 C 190.214844 151.023438 190.207031 151.191406 190.199219 151.359375 L 190.046875 153.839844 C 190.035156 154.03125 190.011719 154.285156 190.015625 154.429688 Z M 180.191406 150.359375 C 180.535156 152.277344 181.25 154.3125 182.371094 156.558594 C 184.664062 156.535156 186.859375 156.007812 188.902344 154.996094 C 188.871094 154.796875 188.851562 154.597656 188.859375 154.398438 C 188.871094 154.128906 188.898438 153.96875 188.917969 153.746094 L 189.167969 151.273438 C 189.199219 150.988281 189.234375 150.703125 189.269531 150.414062 C 189.269531 150.382812 189.273438 150.355469 189.28125 150.324219 C 189.367188 149.609375 189.460938 148.890625 189.566406 148.175781 Z M 242.769531 207.417969 C 243.320312 200.945312 243.8125 194.46875 243.988281 187.960938 C 243.023438 194.402344 242.363281 200.859375 241.785156 207.324219 C 241.25 213.5 240.789062 219.683594 240.589844 225.886719 L 240.6875 225.886719 C 241.578125 219.742188 242.207031 213.582031 242.769531 207.417969 Z M 175.769531 202.023438 C 175.988281 206.351562 176.285156 210.671875 176.582031 214.992188 C 176.902344 219.3125 177.226562 223.632812 177.625 227.949219 L 178.226562 234.421875 C 178.464844 236.574219 178.667969 238.734375 178.933594 240.886719 C 178.890625 238.714844 178.785156 236.550781 178.710938 234.386719 L 178.386719 227.894531 C 178.164062 223.566406 177.867188 219.246094 177.570312 214.921875 C 177.246094 210.601562 176.925781 206.28125 176.527344 201.96875 L 175.921875 195.496094 C 175.6875 193.339844 175.484375 191.183594 175.21875 189.03125 C 175.261719 191.199219 175.367188 193.363281 175.441406 195.53125 Z M 266.625 187.710938 C 266.089844 191.859375 265.835938 196.011719 265.636719 200.179688 C 265.457031 204.535156 265.359375 208.894531 265.5625 213.269531 C 266.144531 208.929688 266.421875 204.582031 266.625 200.21875 C 266.792969 196.058594 266.890625 191.878906 266.726562 187.699219 Z M 197.738281 167.570312 C 199.746094 167.445312 201.738281 166.984375 203.625 166.246094 C 204.5625 165.851562 205.46875 165.417969 206.335938 164.863281 L 206.976562 164.40625 C 207.183594 164.246094 207.367188 164.082031 207.558594 163.917969 C 207.941406 163.589844 208.304688 163.238281 208.65625 162.882812 C 210.074219 161.460938 211.269531 159.835938 212.238281 158.101562 C 210.953125 159.617188 209.589844 161.035156 208.125 162.320312 C 207.386719 162.9375 206.628906 163.613281 205.84375 164.066406 C 205.03125 164.554688 204.144531 164.972656 203.257812 165.332031 C 201.46875 166.046875 199.582031 166.53125 197.65625 166.804688 C 195.726562 167.082031 193.761719 167.179688 191.777344 167.191406 C 193.726562 167.558594 195.734375 167.722656 197.738281 167.570312 Z M 270.675781 171.136719 C 269.203125 170.851562 267.800781 170.269531 266.597656 169.261719 C 266.992188 169.945312 267.609375 170.507812 268.296875 170.925781 C 268.984375 171.347656 269.757812 171.625 270.550781 171.785156 C 272.136719 172.085938 273.820312 171.871094 275.222656 171.144531 C 273.660156 171.367188 272.152344 171.429688 270.675781 171.136719 Z M 270.675781 171.136719 " fill-opacity="1" fill-rule="nonzero"/></g></svg>