<svg xmlns="http://www.w3.org/2000/svg" xmlns:xlink="http://www.w3.org/1999/xlink" width="500" zoomAndPan="magnify" viewBox="0 0 375 374.999991" height="500" preserveAspectRatio="xMidYMid meet" version="1.0"><defs><clipPath id="6b85d89651"><path d="M 279 63.09375 L 292 63.09375 L 292 177 L 279 177 Z M 279 63.09375 " clip-rule="nonzero"/></clipPath><clipPath id="7e8e20905d"><path d="M 35.320312 134 L 339.820312 134 L 339.820312 312.09375 L 35.320312 312.09375 Z M 35.320312 134 " clip-rule="nonzero"/></clipPath></defs><path fill="#9f1ae2" d="M 171.230469 177.566406 C 176.207031 182.441406 179.296875 189.234375 179.296875 196.734375 C 179.296875 198.726562 179.074219 200.667969 178.660156 202.535156 L 183.59375 207.472656 L 183.59375 121.984375 L 171.230469 121.984375 L 171.230469 177.566406 " fill-opacity="1" fill-rule="nonzero"/><path fill="#9f1ae2" d="M 149.589844 170.027344 C 150.527344 169.925781 151.480469 169.871094 152.445312 169.871094 C 155.792969 169.871094 158.996094 170.492188 161.953125 171.621094 L 161.953125 86.226562 L 149.589844 86.226562 L 149.589844 170.027344 " fill-opacity="1" fill-rule="nonzero"/><path fill="#9f1ae2" d="M 84.660156 243.8125 L 97.019531 231.449219 L 97.019531 167.070312 L 84.660156 167.070312 L 84.660156 243.8125 " fill-opacity="1" fill-rule="nonzero"/><path fill="#9f1ae2" d="M 127.945312 185.761719 C 130.464844 180.15625 134.851562 175.566406 140.308594 172.785156 L 140.308594 111.726562 L 127.945312 111.726562 L 127.945312 185.761719 " fill-opacity="1" fill-rule="nonzero"/><path fill="#9f1ae2" d="M 106.300781 222.164062 L 118.664062 209.800781 L 118.664062 128.921875 L 106.300781 128.921875 L 106.300781 222.164062 " fill-opacity="1" fill-rule="nonzero"/><path fill="#9f1ae2" d="M 257.804688 198.21875 L 270.167969 185.851562 L 270.167969 92.253906 L 257.804688 92.253906 L 257.804688 198.21875 " fill-opacity="1" fill-rule="nonzero"/><g clip-path="url(#6b85d89651)"><path fill="#9f1ae2" d="M 279.445312 63.117188 L 279.445312 176.570312 L 291.8125 164.203125 L 291.8125 63.117188 L 279.445312 63.117188 " fill-opacity="1" fill-rule="nonzero"/></g><path fill="#9f1ae2" d="M 192.875 216.757812 L 205.238281 229.121094 L 205.238281 144.476562 L 192.875 144.476562 L 192.875 216.757812 " fill-opacity="1" fill-rule="nonzero"/><path fill="#9f1ae2" d="M 236.160156 219.867188 L 248.527344 207.5 L 248.527344 128.921875 L 236.160156 128.921875 L 236.160156 219.867188 " fill-opacity="1" fill-rule="nonzero"/><path fill="#9f1ae2" d="M 214.519531 228.890625 C 215.097656 228.851562 215.683594 228.828125 216.273438 228.828125 C 219.53125 228.828125 222.65625 229.410156 225.546875 230.480469 L 226.882812 229.148438 L 226.882812 105.410156 L 214.519531 105.410156 L 214.519531 228.890625 " fill-opacity="1" fill-rule="nonzero"/><path fill="#9f1ae2" d="M 63.015625 265.460938 L 75.378906 253.097656 L 75.378906 198.21875 L 63.015625 198.21875 L 63.015625 265.460938 " fill-opacity="1" fill-rule="nonzero"/><g clip-path="url(#7e8e20905d)"><path fill="#2937f0" d="M 319.371094 167.070312 C 312.542969 167.070312 307.007812 161.535156 307.007812 154.707031 C 307.007812 147.878906 312.542969 142.339844 319.371094 142.339844 C 326.195312 142.339844 331.734375 147.878906 331.734375 154.707031 C 331.734375 161.535156 326.195312 167.070312 319.371094 167.070312 Z M 216.273438 268.054688 C 209.445312 268.054688 203.910156 262.515625 203.910156 255.6875 C 203.910156 248.855469 209.445312 243.320312 216.273438 243.320312 C 223.101562 243.320312 228.636719 248.855469 228.636719 255.6875 C 228.636719 262.515625 223.101562 268.054688 216.273438 268.054688 Z M 152.445312 209.097656 C 145.617188 209.097656 140.082031 203.5625 140.082031 196.734375 C 140.082031 189.902344 145.617188 184.363281 152.445312 184.363281 C 159.273438 184.363281 164.808594 189.902344 164.808594 196.734375 C 164.808594 203.5625 159.273438 209.097656 152.445312 209.097656 Z M 55.773438 303.980469 C 48.945312 303.980469 43.410156 298.441406 43.410156 291.613281 C 43.410156 284.785156 48.945312 279.25 55.773438 279.25 C 62.601562 279.25 68.136719 284.785156 68.136719 291.613281 C 68.136719 298.441406 62.601562 303.980469 55.773438 303.980469 Z M 319.371094 134.25 C 308.074219 134.25 298.917969 143.410156 298.917969 154.707031 C 298.917969 158.027344 299.71875 161.167969 301.125 163.941406 L 226.886719 238.195312 C 223.792969 236.3125 220.160156 235.226562 216.273438 235.226562 C 212.28125 235.226562 208.5625 236.378906 205.414062 238.351562 L 171.425781 204.351562 C 172.371094 201.996094 172.898438 199.425781 172.898438 196.734375 C 172.898438 185.433594 163.742188 176.277344 152.445312 176.277344 C 141.152344 176.277344 131.992188 185.433594 131.992188 196.734375 C 131.992188 199.34375 132.488281 201.839844 133.378906 204.132812 L 64.445312 273.085938 C 61.8125 271.851562 58.875 271.15625 55.773438 271.15625 C 44.476562 271.15625 35.320312 280.316406 35.320312 291.613281 C 35.320312 302.910156 44.476562 312.070312 55.773438 312.070312 C 67.066406 312.070312 76.222656 302.910156 76.222656 291.613281 C 76.222656 288.070312 75.320312 284.734375 73.734375 281.824219 L 141.519531 214.023438 C 144.683594 216.027344 148.425781 217.191406 152.445312 217.191406 C 156.386719 217.191406 160.0625 216.070312 163.183594 214.144531 L 197.238281 248.203125 C 196.328125 250.523438 195.824219 253.046875 195.824219 255.6875 C 195.824219 266.984375 204.976562 276.140625 216.273438 276.140625 C 227.566406 276.140625 236.722656 266.984375 236.722656 255.6875 C 236.722656 252.933594 236.179688 250.316406 235.195312 247.917969 L 310.136719 172.957031 C 312.910156 174.363281 316.042969 175.164062 319.371094 175.164062 C 330.664062 175.164062 339.820312 166.003906 339.820312 154.707031 C 339.820312 143.410156 330.664062 134.25 319.371094 134.25 " fill-opacity="1" fill-rule="nonzero"/></g></svg>